<svg width="58" height="50" viewBox="0 0 58 50" version="1.1" xmlns="http://www.w3.org/2000/svg" xmlns:xlink="http://www.w3.org/1999/xlink">
<g id="Canvas" fill="none">
<g id="Group">
<path id="More" d="M 1.75934 4.148L 1.75934 17L 3.37934 17L 3.37934 6.308L 3.41534 6.308L 7.42934 17L 8.88734 17L 12.9013 6.308L 12.9373 6.308L 12.9373 17L 14.5573 17L 14.5573 4.148L 12.2173 4.148L 8.14934 14.948L 4.09934 4.148L 1.75934 4.148ZM 18.267 12.356C 18.267 11.792 18.339 11.294 18.483 10.862C 18.639 10.418 18.849 10.046 19.113 9.746C 19.377 9.446 19.683 9.218 20.031 9.062C 20.391 8.906 20.769 8.828 21.165 8.828C 21.561 8.828 21.933 8.906 22.281 9.062C 22.641 9.218 22.953 9.446 23.217 9.746C 23.481 10.046 23.685 10.418 23.829 10.862C 23.985 11.294 24.063 11.792 24.063 12.356C 24.063 12.92 23.985 13.424 23.829 13.868C 23.685 14.3 23.481 14.666 23.217 14.966C 22.953 15.254 22.641 15.476 22.281 15.632C 21.933 15.788 21.561 15.866 21.165 15.866C 20.769 15.866 20.391 15.788 20.031 15.632C 19.683 15.476 19.377 15.254 19.113 14.966C 18.849 14.666 18.639 14.3 18.483 13.868C 18.339 13.424 18.267 12.92 18.267 12.356ZM 16.647 12.356C 16.647 13.04 16.743 13.676 16.935 14.264C 17.127 14.852 17.415 15.368 17.799 15.812C 18.183 16.244 18.657 16.586 19.221 16.838C 19.785 17.078 20.433 17.198 21.165 17.198C 21.909 17.198 22.557 17.078 23.109 16.838C 23.673 16.586 24.147 16.244 24.531 15.812C 24.915 15.368 25.203 14.852 25.395 14.264C 25.587 13.676 25.683 13.04 25.683 12.356C 25.683 11.672 25.587 11.036 25.395 10.448C 25.203 9.848 24.915 9.332 24.531 8.9C 24.147 8.456 23.673 8.108 23.109 7.856C 22.557 7.604 21.909 7.478 21.165 7.478C 20.433 7.478 19.785 7.604 19.221 7.856C 18.657 8.108 18.183 8.456 17.799 8.9C 17.415 9.332 17.127 9.848 16.935 10.448C 16.743 11.036 16.647 11.672 16.647 12.356ZM 27.433 7.694L 27.433 17L 28.963 17L 28.963 12.86C 28.963 12.26 29.023 11.732 29.143 11.276C 29.263 10.808 29.455 10.412 29.719 10.088C 29.983 9.764 30.331 9.518 30.763 9.35C 31.195 9.182 31.717 9.098 32.329 9.098L 32.329 7.478C 31.501 7.454 30.817 7.622 30.277 7.982C 29.737 8.342 29.281 8.9 28.909 9.656L 28.873 9.656L 28.873 7.694L 27.433 7.694ZM 39.7849 11.456L 34.4389 11.456C 34.4629 11.096 34.5409 10.76 34.6729 10.448C 34.8049 10.124 34.9849 9.842 35.2129 9.602C 35.4409 9.362 35.7109 9.176 36.0229 9.044C 36.3469 8.9 36.7069 8.828 37.1029 8.828C 37.4869 8.828 37.8349 8.9 38.1469 9.044C 38.4709 9.176 38.7469 9.362 38.9749 9.602C 39.2149 9.83 39.4009 10.106 39.5329 10.43C 39.6769 10.754 39.7609 11.096 39.7849 11.456ZM 41.2609 14.048L 39.7489 14.048C 39.6169 14.66 39.3409 15.116 38.9209 15.416C 38.5129 15.716 37.9849 15.866 37.3369 15.866C 36.8329 15.866 36.3949 15.782 36.0229 15.614C 35.6509 15.446 35.3449 15.224 35.1049 14.948C 34.8649 14.66 34.6909 14.336 34.5829 13.976C 34.4749 13.604 34.4269 13.214 34.4389 12.806L 41.4049 12.806C 41.4289 12.242 41.3749 11.648 41.2429 11.024C 41.1229 10.4 40.8949 9.824 40.5589 9.296C 40.2349 8.768 39.7969 8.336 39.2449 8C 38.7049 7.652 38.0209 7.478 37.1929 7.478C 36.5569 7.478 35.9689 7.598 35.4289 7.838C 34.9009 8.078 34.4389 8.414 34.0429 8.846C 33.6589 9.278 33.3589 9.788 33.1429 10.376C 32.9269 10.964 32.8189 11.612 32.8189 12.32C 32.8429 13.028 32.9449 13.682 33.1249 14.282C 33.3169 14.882 33.5989 15.398 33.9709 15.83C 34.3429 16.262 34.7989 16.598 35.3389 16.838C 35.8909 17.078 36.5389 17.198 37.2829 17.198C 38.3389 17.198 39.2149 16.934 39.9109 16.406C 40.6069 15.878 41.0569 15.092 41.2609 14.048Z" transform="translate(8 32)" fill="white"/>
<g id="noun_39389_cc">
<path id="Vector" d="M 29 -4.84406e-07C 9.18333 -4.84406e-07 0 16 0 16C 0 16 9.18333 32 29 32C 48.8167 32 58 16 58 16C 58 16 48.72 -4.84406e-07 29 -4.84406e-07ZM 29.145 30.0476C 21.2705 30.0476 14.8867 23.7581 14.8867 16C 14.8867 8.24191 21.2705 1.95238 29.145 1.95238C 37.0195 1.95238 43.4033 8.24191 43.4033 16C 43.4033 23.7581 37.0195 30.0476 29.145 30.0476Z" fill="#F2F2F2"/>
<path id="Vector_2" d="M 8.41 8.42857L 12.247 0.823492C 11.1296 0.295873 9.8774 -9.68812e-07 8.555 -9.68812e-07C 3.82993 -9.68812e-07 4.91672e-07 3.77333 4.91672e-07 8.42857C 4.91672e-07 13.0838 3.82993 16.8571 8.555 16.8571C 13.2801 16.8571 17.11 13.0838 17.11 8.42857C 17.11 7.97905 17.0733 7.53841 17.005 7.10857L 8.41 8.42857Z" transform="translate(20.59 7.57141)" fill="#F2F2F2"/>
</g>
</g>
</g>
</svg>
