<svg width="30" height="30" viewBox="0 0 30 30" fill="none" xmlns="http://www.w3.org/2000/svg">
<path d="M11.5297 -2.80499e-07H2.58829C1.16112 -2.80499e-07 2.60099e-07 1.16112 2.60099e-07 2.58829V11.5297C2.60099e-07 12.9568 1.16112 14.1183 2.58829 14.1183H11.5297C12.9568 14.1183 14.1183 12.9572 14.1183 11.5297V2.58829C14.1183 1.16112 12.9572 -2.80499e-07 11.5297 -2.80499e-07ZM7.05898 11.7068C4.49642 11.7068 2.41148 9.62187 2.41148 7.05898C2.41148 4.49642 4.49642 2.41148 7.05898 2.41148C9.62187 2.41148 11.7068 4.49642 11.7068 7.05898C11.7068 9.62154 9.62154 11.7068 7.05898 11.7068ZM11.8562 3.3724C11.2496 3.3724 10.7563 2.87907 10.7563 2.27278C10.7563 1.66648 11.2496 1.17315 11.8562 1.17315C12.4625 1.17315 12.9558 1.66648 12.9558 2.27278C12.9558 2.87907 12.4625 3.3724 11.8562 3.3724Z" transform="translate(7.94104 7.98145)" fill="white"/>
<path d="M2.68388 2.24399e-07C1.20457 2.24399e-07 -3.26398e-07 1.2039 -3.26398e-07 2.68321C-3.26398e-07 4.16319 1.20457 5.36743 2.68388 5.36743C4.16386 5.36743 5.36743 4.16319 5.36743 2.68321C5.36743 1.20424 4.16353 2.24399e-07 2.68388 2.24399e-07Z" transform="translate(12.3161 12.3569)" fill="white"/>
<path d="M15 0C6.71606 0 0 6.71606 0 15C0 23.2839 6.71606 30 15 30C23.2839 30 30 23.2839 30 15C30 6.71606 23.2839 0 15 0ZM24.0229 19.5111C24.0229 22.0215 21.9811 24.0634 19.4707 24.0634H10.5293C8.01923 24.0634 5.97707 22.0215 5.97707 19.5111V10.5698C5.97707 8.05967 8.01923 6.01751 10.5293 6.01751H19.4707C21.9811 6.01751 24.0229 8.05967 24.0229 10.5698V19.5111Z" fill="white"/>
</svg>
