<svg width="27" height="27" viewBox="0 0 27 27" version="1.1" xmlns="http://www.w3.org/2000/svg" xmlns:xlink="http://www.w3.org/1999/xlink">
<g id="Canvas" fill="none">
<g id="linkedin">
<g id="Group">
<g id="Group_2">
<path id="Vector" d="M 20.2125 1.59655e-10L 6.76606 1.59655e-10C 3.04044 1.59655e-10 0 3.04286 0 6.77143L 0 20.25C 0 23.9571 3.04044 27 6.76606 27L 20.2339 27C 23.9596 27 27 23.9571 27 20.2286L 27 6.77143C 26.9786 3.04286 23.9381 1.59655e-10 20.2125 1.59655e-10ZM 8.99286 21.8571L 5.13878 21.8571L 5.13878 10.7143L 8.99286 10.7143L 8.99286 21.8571ZM 7.04441 9C 5.95242 9 5.07454 8.12143 5.07454 7.02857C 5.07454 5.93571 5.95242 5.05714 7.04441 5.05714C 8.1364 5.05714 9.01427 5.93571 9.01427 7.02857C 8.99286 8.12143 8.11499 9 7.04441 9ZM 21.8612 21.8571L 21.8398 21.8571L 18.6281 21.8571L 18.6281 16.4571C 18.6281 15.15 18.4568 13.4786 16.6796 13.4786C 14.8596 13.4786 14.5599 14.8929 14.5599 16.3714L 14.5599 21.8571L 11.3481 21.8571L 11.3481 10.7143L 14.3458 10.7143L 14.3458 12.2143L 14.4314 12.2143C 14.9025 11.3571 15.9944 10.6929 17.7074 10.6929C 21.2403 10.6929 21.8612 12.7286 21.8612 15.75L 21.8612 21.8571Z" fill="white"/>
</g>
</g>
</g>
</g>
</svg>
