<svg width="30" height="30" viewBox="0 0 30 30" fill="none" xmlns="http://www.w3.org/2000/svg">
<path fill-rule="evenodd" clip-rule="evenodd" d="M30 15C30 23.2842 23.2843 30 15 30C6.71573 30 0 23.2842 0 15C0 6.71582 6.71573 0 15 0C23.2843 0 30 6.71582 30 15ZM23.9623 22.3914V16.207C23.9623 12.8955 22.1938 11.3542 19.8349 11.3542C17.9298 11.3542 17.08 12.4023 16.6035 13.1355V11.6074H13.0176C13.0657 12.6189 13.0176 22.3911 13.0176 22.3911H16.6033V16.3684C16.6033 16.0452 16.6276 15.7251 16.722 15.4944C16.9819 14.8496 17.5704 14.1836 18.5611 14.1836C19.8593 14.1836 20.3769 15.1729 20.3769 16.6216V22.3914H23.9623ZM16.6035 13.1355V13.1709H16.5797C16.5831 13.165 16.5874 13.1589 16.5918 13.1528L16.6035 13.1355ZM7.23769 8.27222C7.23769 7.2146 8.04012 6.40942 9.26663 6.40942C10.4934 6.40942 11.2472 7.2146 11.271 8.27222C11.271 9.30762 10.4934 10.136 9.24284 10.136H9.21957C8.01686 10.136 7.23769 9.30762 7.23769 8.27222ZM11.0351 22.3914H7.4508V11.6074H11.0351V22.3914Z" fill="white"/>
</svg>
