<svg xmlns="http://www.w3.org/2000/svg" width="1024" height="630" viewBox="0 0 1024 630" xmlns:xlink="http://www.w3.org/1999/xlink">
  <defs>
    <path id="a" d="M1024,499.083255 L1024,0 L8.37200554e-13,0 L0,484.433836 C215.722667,513.284755 436.906667,548.52979 1024,459.270346 L1024,499.083255 L1024,499.083255 Z"/>
  </defs>
  <g fill="none" fill-rule="evenodd">
    <mask id="b" fill="white">
      <use xlink:href="#a"/>
    </mask>
    <path fill="#FEFEFE" d="M71.2864934 65.0162426L117.939953 88.6430803C115.949836 89.8518086 59.8059095 123.958514 56.8896029 125.729875L71.2864934 65.0162426zM117.994304 88.5454579L71.3564788 64.9111682C73.1373839 63.0950949 118.803603 16.5255211 119.017282 16.3094106 119.013559 16.6082392 118.057588 84.057812 117.994304 88.5454579L117.994304 88.5454579zM187.641691 27.3884264C183.571369 30.9661727 118.321895 88.3271118 118.118639 88.5059619 118.123107 88.2361964 119.079822 20.6219326 119.142362 16.2266924L187.641691 27.3884264zM220.676289 61.4772471C217.40261 62.8670611 185.274844 76.5051231 185.101369 76.579644 185.111793 76.3896158 187.601486 31.5161366 187.824099 27.5031885L220.676289 61.4772471zM239.402596 137.510132C238.702742 134.647041 221.595778 64.631715 220.849019 61.5756147 223.175661 61.8789145 281.201749 69.4427815 281.38788 69.4673734 281.289603 69.626848 241.316026 134.409319 239.402596 137.510132L239.402596 137.510132zM329.750771 97.2688694C329.533369 97.3664918 243.416333 135.799133 239.535866 137.531743L281.512961 69.5023982C283.201545 70.4741502 329.543793 97.1503813 329.750771 97.2688694L329.750771 97.2688694zM349.51718 120.743685C349.462829 120.677361 330.155793 97.4998841 330.009866 97.3240149 330.236946 97.2979326 391.6268 90.1051795 392.099574 90.050034 391.714654 90.3272516 349.677997 120.628922 349.51718 120.743685L349.51718 120.743685zM239.826975 137.53696L329.870639 97.3523328C331.319486 99.0916496 349.244683 120.611037 349.378698 120.772002 349.168742 120.803301 247.37572 136.382632 239.826975 137.53696L239.826975 137.53696zM343.781355 143.95097C340.510654 143.751999 247.760639 138.116732 239.963968 137.642779 248.406888 136.351333 349.238727 120.920299 349.414435 120.892726 349.372742 121.067105 344.036727 142.906187 343.781355 143.95097L343.781355 143.95097zM313.490333 189.536123C313.695077 189.229842 343.668187 144.369777 343.808902 144.157393 343.887822 144.400331 353.798201 175.403243 353.835428 175.518005 353.721515 175.557501 313.837282 189.415399 313.490333 189.536123L313.490333 189.536123zM335.391296 214.810617C334.129326 213.366403 313.559574 189.817812 313.443428 189.68442 313.609457 189.626293 350.802231 176.703632 353.79299 175.664066L335.391296 214.810617zM335.476917 214.914201C336.065092 213.665231 353.695457 176.165591 353.876377 175.781063 353.924771 176.197635 360.361939 231.445908 360.732712 234.629439L335.476917 214.914201zM308.781209 251.023282L335.415866 215.009588C336.441077 215.810687 360.498931 234.605592 360.679851 234.747927 360.461705 234.815741 311.88588 250.050785 308.781209 251.023282L308.781209 251.023282zM254.616231 271.850371L243.934523 212.503451C248.767238 215.395606 308.265997 251.002416 308.475209 251.128356 308.242917 251.217036 256.667399 271.06045 254.616231 271.850371L254.616231 271.850371zM189.486625 273.055373C189.676479 272.844479 243.64118 212.704657 243.810931 212.51612 243.854858 212.765765 254.468815 271.731138 254.494873 271.874963 254.349691 271.877199 189.771034 273.050902 189.486625 273.055373L189.486625 273.055373zM155.637515 287.016856C155.834815 286.935628 189.209661 273.244656 189.315384 273.200689 189.367501 273.302037 222.650771 339.214245 222.900931 339.708318 222.464639 339.367013 155.805778 287.148013 155.637515 287.016856L155.637515 287.016856zM157.153369 227.5589C159.161355 230.407832 189.162756 272.97042 189.248377 273.093379 189.110639 273.150015 158.249311 285.810363 155.580931 286.90582L157.153369 227.5589zM126.407442 220.907168C128.311939 219.303479 168.141822 185.743011 170.755107 183.540175 170.010581 185.919626 157.894172 224.612345 157.053603 227.297332L126.407442 220.907168zM184.973311 76.6228661L118.246698 88.5611073C122.756289 84.5958525 187.486085 27.6917263 187.699764 27.5024433 187.684128 27.7878582 185.136362 73.6852539 184.973311 76.6228661L184.973311 76.6228661zM192.508654 102.156692L185.108815 76.7108007C187.500231 75.6958266 220.224362 61.8043937 220.601836 61.6449191 220.367311 61.9824985 194.370712 99.471706 192.508654 102.156692L192.508654 102.156692zM243.904742 212.266475L239.4428 137.736676C243.134902 137.960983 343.289968 144.045611 343.644362 144.067222 343.350274 144.267683 247.172464 210.031594 243.904742 212.266475L243.904742 212.266475zM313.296012 189.603192C313.255063 189.61586 245.061734 211.917717 244.243501 212.185247 244.956012 211.697881 343.072566 144.608989 343.599691 144.248308 343.245296 144.776661 313.319836 189.567422 313.296012 189.603192L313.296012 189.603192zM244.209997 212.327582C249.35318 210.645646 312.857486 189.877429 313.182844 189.770864L313.179866 189.775335C313.179866 189.775335 313.269209 189.744036 313.316114 189.728387 313.368975 189.788749 333.777909 213.154018 335.265472 214.855329L244.209997 212.327582zM170.939749 183.581907C170.939749 183.581907 170.940493 183.531232 170.940493 183.447024 172.9388 184.242161 238.736245 210.413141 243.619588 212.3559 238.938756 213.164451 157.381194 227.256345 157.186128 227.290625 157.244201 227.103577 169.867632 186.788539 170.895822 183.507386 170.92188 183.551353 170.939749 183.581907 170.939749 183.581907L170.939749 183.581907zM147.796917 144.591104C147.872858 144.723006 168.69426 179.797738 170.770742 183.297237L106.078172 186.314586C109.452362 182.940282 147.687472 144.699904 147.796917 144.591104L147.796917 144.591104zM118.092581 88.8480126L147.732143 144.479323C145.68842 146.52343 106.25388 185.963593 106.005953 186.211002 106.049136 185.859264 117.683836 92.1358728 118.092581 88.8480126L118.092581 88.8480126zM170.941238 182.876939C170.948683 176.336244 171.010479 126.103225 171.010479 126.058512 171.041004 126.024978 189.974289 105.159883 192.360493 102.530787 191.120114 107.183124 172.576961 176.739402 170.941238 182.876939L170.941238 182.876939zM170.885399 126.163586C170.88242 128.632462 170.816902 182.690637 170.816158 183.12882 170.595778 182.756216 149.250975 146.799902 147.889982 144.50615L170.885399 126.163586zM170.845194 126.036901C169.516216 127.096588 147.94061 144.304944 147.828931 144.396605 147.760435 144.269919 120.265851 92.6634805 118.233296 88.8472674 120.979107 90.7877905 169.234041 124.897477 170.845194 126.036901L170.845194 126.036901zM170.939749 125.951202C170.849661 125.888605 118.777545 89.0805177 118.32115 88.7570972 118.871355 88.8591908 192.146815 102.300518 192.364216 102.340759 192.215311 102.50545 171.011968 125.87072 170.939749 125.951202L170.939749 125.951202zM170.979953 183.211538C171.06334 182.901531 191.65245 105.635326 192.51461 102.39963L239.269326 137.666626C235.69188 140.052039 171.246493 183.035669 170.979953 183.211538L170.979953 183.211538zM171.011223 183.341204C171.208523 183.210048 239.142012 137.901367 239.320698 137.782133 239.334844 137.996753 243.769982 212.090606 243.78115 212.285105 243.598742 212.213565 171.230114 183.428394 171.011223 183.341204L171.011223 183.341204zM184.994158 76.7607297C185.095413 77.1124681 192.040347 100.959887 192.408888 102.222271 188.390683 101.48526 123.462844 89.5738458 118.403048 88.6468063 123.400304 87.7540464 184.015107 76.9209495 184.965866 76.7510419 184.965866 76.7592392 184.965866 76.7719078 184.965866 76.7719078 184.965866 76.7719078 184.975545 76.7681817 184.994158 76.7607297L184.994158 76.7607297zM126.306187 220.831157L106.026055 186.439782C108.676566 186.316077 168.130654 183.546137 170.697778 183.426158 168.178304 185.549257 127.935953 219.458483 126.306187 220.831157L126.306187 220.831157zM189.350377 273.020349L157.185384 227.416565 243.682873 212.471407 189.350377 273.020349zM308.601034 251.057562C307.566888 250.439039 244.487705 212.689753 244.084917 212.448306 244.550245 212.460974 332.434785 214.890354 335.293764 214.969346L308.601034 251.057562zM220.748508 61.6516259L239.275282 137.515349C236.856318 135.690333 192.917399 102.546437 192.577895 102.29083 192.587574 102.281142 192.606931 102.259531 192.606931 102.259531 192.606931 102.259531 192.595019 102.25655 192.592041 102.25655 193.364114 101.143209 218.26626 65.2308627 220.748508 61.6516259L220.748508 61.6516259zM56.8672672 125.88935C58.5699971 124.855 117.761267 88.8964512 117.977924 88.7645493 117.947399 89.0112133 106.631355 180.16289 105.877895 186.230378L56.8672672 125.88935zM425.709691 157.861033C425.709691 157.861033 399.24553 157.67324 399.13534 157.67324 399.123428 157.561459 392.369092 90.0895301 392.369092 90.0895301L497.477486 115.038368C497.443982 115.057743 425.709691 157.861033 425.709691 157.861033L425.709691 157.861033zM545.456201 177.275207C545.265603 177.317683 472.84188 193.27707 472.63118 193.323273 472.697442 193.118341 497.696377 115.334216 497.768596 115.109163 497.912289 115.296955 545.337077 177.120203 545.456201 177.275207L545.456201 177.275207zM105.857048 186.401031C105.84588 186.491946 105.836946 186.555289 105.836946 186.555289 105.836946 186.555289 105.865982 186.526226 105.909165 186.483749L126.27715 220.986906 157.020844 227.40017C157.012654 227.428488 157.006698 227.447119 157.006698 227.447119L157.032012 227.442647 155.454362 286.957239C155.41788 286.972143 155.393311 286.981831 155.393311 286.981831L223.043136 339.979574 223.137691 339.902072C223.137691 339.902072 190.045764 274.369921 189.444931 273.181314L254.642289 271.995687 254.639311 271.974821C256.389691 271.300407 308.633793 251.200642 308.637515 251.199897L360.943413 234.79413 360.87045 234.738239 353.979866 175.599232 353.991034 175.595506 353.973165 175.541851 353.948596 175.332448 353.924026 175.386103 343.893778 144.014313C343.981632 143.655867 349.528347 120.889 349.531326 120.874096 349.561851 120.87037 349.615457 120.861428 349.615457 120.861428 349.615457 120.861428 349.600566 120.844288 349.587909 120.828638 349.691399 120.754117 388.451399 92.8304072 392.256669 90.0895301L399.021428 157.796945 425.740961 157.97654C425.740961 157.97654 497.354639 115.282796 497.635326 115.115124 497.536304 115.426621 472.445793 193.490945 472.445793 193.490945L545.674347 177.354199C545.674347 177.354199 497.852727 114.930313 497.808055 114.870696L392.486727 89.9233486C392.530654 89.8920498 392.56118 89.871184 392.56118 89.871184L392.361647 89.8942855 392.235077 89.8637319 392.239545 89.9076992 329.902654 97.2122336 281.578479 69.3958334 281.595603 69.3690059 220.885501 61.4548909C220.924961 61.3975098 220.94953 61.3617398 220.94953 61.3617398 220.94953 61.3617398 220.890712 61.3863317 220.790946 61.4295538L187.832289 27.3504207C187.838245 27.2609957 187.840479 27.2125572 187.840479 27.2125572 187.840479 27.2125572 187.803997 27.2453463 187.751136 27.2922945L119.144596 16.1014974C119.14534 16.0411355 119.146085 16.000149 119.146085 16.000149L71.1919387 64.9134038 56.7682453 125.803651 56.7622891 125.807377 56.7660117 125.814084 56.7459095 125.899783 105.857048 186.401031zM290.190778 351.967372L237.513362 446.363686C237.502939 446.325681 215.951158 365.566683 215.951158 365.566683 215.951158 365.566683 223.356953 340.13644 223.387479 340.02913 223.498413 340.049251 290.190778 351.967372 290.190778 351.967372L290.190778 351.967372zM164.596764 475.567665C164.606442 475.376891 168.894165 403.757877 169.05126 401.141449L169.052004 401.139959 169.05126 401.137723C169.053493 401.095247 169.055727 401.068419 169.055727 401.068419 169.234413 401.184672 237.168647 446.493353 237.365946 446.624509 237.146311 446.711699 164.778428 475.49687 164.596764 475.567665L164.596764 475.567665zM215.830545 365.565192C215.830545 365.565192 237.311596 446.178129 237.397216 446.494843 237.123975 446.313757 168.944048 400.84113 168.944048 400.84113L168.932136 401.051279C166.635274 401.802449 100.015873 423.588622 99.6823255 423.697422L99.6853036 423.693696C99.6853036 423.693696 99.5967051 423.72425 99.5490555 423.740645L99.6264861 423.847209C101.801245 423.13628 167.817581 401.546843 168.623158 401.283784 168.230048 401.551314 138.398399 421.949908 111.526982 440.323026L111.599946 440.425119C137.815435 422.499872 166.854165 402.64379 168.920968 401.230129L164.459771 475.756948C164.459771 475.756948 237.514851 446.754921 237.583347 446.727348L290.444661 351.900303 223.29888 339.887541 215.830545 365.565192z" opacity=".5" mask="url(#b)"/>
    <path fill="#FEFEFE" d="M191.998505 551.943048C189.271308 551.466859 120.403439 539.450371 114.949045 538.499485L132.132695 510.478898C132.132695 510.478898 132.117804 510.469955 132.095469 510.455051L149.031191 492.461245 191.998505 551.943048zM149.156272 613.223784C149.068418 613.03301 116.29068 542.028048 114.784505 538.76627L114.850023 538.661195C118.124447 539.22979 191.688038 552.016078 191.876403 552.048867 191.765469 552.208342 149.279863 613.047169 149.156272 613.223784L149.156272 613.223784zM70.9602423 636.818578C70.8753664 636.744057 20.2513518 591.68204 20.2513518 591.68204L114.464359 538.7849C114.453191 538.82216 71.0421401 636.743311 70.9602423 636.818578L70.9602423 636.818578zM95.8981255 487.22541C95.9122715 487.265651 114.302797 537.687953 114.520199 538.28561 114.093585 537.809422 70.0906365 470.605023 69.5136292 469.961163 70.2454978 470.41723 95.8623883 487.203053 95.8981255 487.22541L95.8981255 487.22541zM99.3758044 423.93261C99.1710599 424.238891 69.1986949 469.098211 69.057235 469.311341 68.9790599 469.067658 59.0679358 438.065491 59.0307095 437.950729 59.1446219 437.910487 99.0288555 424.053334 99.3758044 423.93261L99.3758044 423.93261zM131.962943 510.516903C131.900403 510.618997 115.23941 537.73043 114.784505 538.470422 114.771104 538.468186 114.763658 538.466696 114.751746 538.465206 114.239512 537.05229 96.3016584 487.738113 96.1773226 487.396062 96.4855562 487.596523 131.862432 510.451325 131.962943 510.516903L131.962943 510.516903zM135.747408 473.859405L135.747366 473.859349C151.121074 474.889972 163.385644 475.711937 164.550082 475.790184L164.581352 475.75665 164.621556 475.794655C164.628257 475.794655 164.649104 475.796146 164.649104 475.796146L164.661761 475.832661 164.672184 475.842349 164.666972 475.847565 192.149644 551.951245 191.897994 551.602487C189.792476 545.775702 165.143469 477.586137 164.564228 475.957111L149.116812 492.369584 191.897994 551.602487C191.956067 551.762707 191.999994 551.884176 192.023074 551.947519 192.065512 551.954971 192.090082 551.958697 192.090082 551.958697L149.13468 613.472684C149.13468 613.472684 114.769615 539.031564 114.631877 538.733481 114.538812 539.047959 70.9609869 636.985504 70.9609869 636.985504L19.9997022 591.607519 114.483717 538.499485C112.340228 535.336075 68.9872496 469.511057 68.9872496 469.511057L68.9887387 469.508821 58.8751036 437.873227C58.8751036 437.873227 99.2499796 423.844676 99.4227095 423.784314L99.5276876 423.929629C98.3364467 425.712914 69.6126511 468.702505 69.2664467 469.21968 69.5039493 469.057971 89.4585495 455.41332 111.421195 440.39521L99.5276876 423.92948C99.5522569 423.89222 99.5708701 423.865392 99.5708701 423.865392 99.5708701 423.865392 99.5917168 423.858686 99.6267095 423.847507L111.527206 440.323324C111.491565 440.347106 111.457405 440.370888 111.421772 440.39541L111.495191 440.496361C89.4028847 455.602484 69.3550453 469.30985 69.2217752 469.401511 69.4496 469.41567 107.598345 471.972481 135.585804 473.848171L135.682593 473.981563C108.84468 472.183375 72.5230015 469.748778 69.2374102 469.528942 71.3987679 470.944093 95.591381 486.790953 95.8810015 486.970548L95.8787679 486.966822C95.8787679 486.966822 95.9576876 487.017496 96.0001255 487.044324L96.1125489 487.117354C96.2607095 487.214231 129.571527 508.818573 131.989001 510.385747L148.956739 492.357661 135.682593 473.981563C135.736199 473.985289 135.791293 473.989015 135.844155 473.991996L149.043104 492.266746 164.437658 475.908672C163.215892 475.825954 151.081615 475.013677 135.844155 473.991996L135.747408 473.859405 135.747664 473.859423 111.599723 440.424896C111.56473 440.448742 111.529737 440.472589 111.495489 440.496436L135.586102 473.848245 135.747408 473.859405zM987.730509 304.777561L1037.41047 321.090176 1004.69899 374.210133C1003.8882 370.893955 988.282947 307.040759 987.730509 304.777561L987.730509 304.777561zM987.618086 304.837177C987.677648 305.082351 1004.12868 372.402257 1004.60295 374.3398L927.317473 382.319493C931.072115 377.495013 987.464714 305.033167 987.618086 304.837177L987.618086 304.837177zM883.343561 334.500205C883.635415 337.907298 888.090655 389.826724 888.302845 392.309759L862.119371 375.137173C863.421546 372.643705 882.188057 336.710493 883.343561 334.500205L883.343561 334.500205zM929.145283 423.074205C929.145283 423.074205 904.432247 486.21051 904.391298 486.315584 904.284086 486.285776 878.753561 479.311369 878.753561 479.311369 878.753561 479.311369 821.237473 418.705047 821.21067 418.676729L929.145283 423.074205zM824.006364 500.768905C823.818743 500.669792 760.551196 466.874583 758.284115 465.662874L758.259546 465.598041C759.849108 464.405707 820.724495 418.806395 820.911371 418.666296 820.920305 418.903272 823.997429 500.554285 824.006364 500.768905L824.006364 500.768905zM858.529269 543.219711C858.39302 543.271875 798.120699 566.3875 797.854904 566.488103 797.960626 566.225044 824.104641 501.309181 824.199196 501.073695 824.325765 501.292786 858.454816 543.09377 858.529269 543.219711L858.529269 543.219711zM773.578904 641.377093C773.436699 641.245191 719.119838 590.708127 718.961999 590.561321 719.167488 590.499468 797.300977 566.824937 797.527312 566.756378 797.455093 566.981431 773.63921 641.191536 773.578904 641.377093L773.578904 641.377093zM653.807079 557.389106C653.78921 557.351101 631.09086 508.491501 630.822086 507.915455 631.287415 508.352147 717.945721 589.728177 718.574845 590.319128 717.807239 589.928639 653.845794 557.409227 653.807079 557.389106L653.807079 557.389106zM615.909984 537.239412C615.962845 537.135083 629.795385 509.461017 630.591283 507.867761L630.644889 507.82603C631.246466 509.123438 653.472042 556.963592 653.62467 557.294465 653.300057 557.120831 616.015707 537.296793 615.909984 537.239412L615.909984 537.239412zM584.088962 544.532023C584.232655 544.131101 598.258028 505.138062 598.72559 503.837674L630.500451 507.770139 630.49375 507.786534C627.755385 509.955091 584.417298 544.271945 584.088962 544.532023L584.088962 544.532023zM565.320962 506.083732C565.497415 506.072554 596.667721 503.980008 598.590831 503.850342L583.947502 544.55587C582.567152 541.703956 565.396904 506.242462 565.320962 506.083732L565.320962 506.083732zM565.250232 506.221596C565.410305 506.553214 583.821677 544.579716 583.873794 544.687772 583.767327 544.743662 554.8574 559.65156 554.63032 559.767812 554.680203 559.517422 565.177269 506.583022 565.250232 506.221596L565.250232 506.221596zM542.158028 580.185782C542.05305 580.042702 481.654904 497.767205 476.598086 490.877751 482.446334 496.060677 552.011079 557.719979 554.464291 559.894498 553.906641 560.81334 542.251093 580.032269 542.158028 580.185782L542.158028 580.185782zM550.551809 632.205066C550.256232 631.831716 511.928801 583.296282 511.786597 583.117432 512.014422 583.097312 542.040393 580.371339 542.126013 580.363887 542.157283 580.558386 550.475123 631.73633 550.551809 632.205066L550.551809 632.205066zM476.426845 490.85465C480.94686 497.013053 541.922013 580.075491 542.047838 580.245398 541.837882 580.264774 514.04921 582.78656 511.708422 582.998944L476.426845 490.85465zM476.216889 490.653444C477.737955 494.62466 511.479853 582.75079 511.563984 582.972862 511.33467 582.911009 459.720436 568.974119 457.83902 568.466632L476.216889 490.653444zM409.34286 531.136154C412.030597 529.503402 473.590203 492.102874 476.107444 490.572961 475.269853 494.119409 457.769035 568.220713 457.726597 568.403289 457.577692 568.288527 411.203429 532.56919 409.34286 531.136154L409.34286 531.136154zM361.920305 531.856025C364.597619 528.860287 394.538714 495.367633 394.665283 495.226043 394.735269 495.401167 407.819561 527.784206 409.152261 531.083989L361.920305 531.856025zM305.389225 491.219057C308.449969 488.068315 355.539721 439.579829 355.728086 439.386075 355.744466 439.655095 361.359677 526.397372 361.709604 531.807587L305.389225 491.219057zM305.993035 422.972856L355.66778 439.270568C352.541517 442.488378 305.567166 490.858376 305.357955 491.072251 305.360188 490.768951 305.96921 425.518489 305.993035 422.972856L305.993035 422.972856zM355.698305 439.162512L306.01686 422.849897 338.729079 369.729194C339.539867 373.044627 355.145123 436.899314 355.698305 439.162512L355.698305 439.162512zM355.809984 439.102896C355.750422 438.856977 339.298641 371.53707 338.825867 369.600273L416.109853 361.619835C412.355955 366.444315 355.962612 438.906161 355.809984 439.102896L355.809984 439.102896zM460.084509 409.439123C459.792655 406.032775 455.338159 354.112604 455.125225 351.630314L481.308699 368.802155C480.006524 371.295623 461.239269 407.22958 460.084509 409.439123L460.084509 409.439123zM536.377531 359.219518C536.229371 359.244855 484.996334 368.094952 481.563327 368.688138L522.370028 325.614338C523.483838 328.277713 536.319458 359.080909 536.377531 359.219518L536.377531 359.219518zM532.2134 440.656655C532.226057 440.403285 536.553984 359.684528 536.56813 359.400604 536.766174 359.604791 581.601502 406.14083 581.702013 406.245159 581.5814 406.327878 532.419634 440.51134 532.2134 440.656655L532.2134 440.656655zM605.215619 459.119943C604.97886 459.061071 537.751926 442.128442 532.291575 440.753533L581.770509 406.349489C582.663196 408.359316 605.114364 458.8934 605.215619 459.119943L605.215619 459.119943zM605.358568 459.410574C606.866232 462.296767 630.451312 507.448954 630.55778 507.651651 630.329955 507.623333 600.228787 503.909959 598.749415 503.727383L605.358568 459.410574zM532.358582 440.898103C532.813488 441.012865 604.086174 458.964194 605.255079 459.259297L598.634758 503.669256C596.557531 501.701906 532.697342 441.218543 532.358582 440.898103L532.358582 440.898103zM532.361561 441.073227L598.534247 503.729618C596.224728 503.884622 565.342553 505.957792 565.2614 505.963754 565.239809 505.918296 565.19886 505.834087 565.19886 505.834087L565.198115 505.839304C565.042509 505.533023 534.810305 445.901433 532.361561 441.073227L532.361561 441.073227zM532.102466 440.899593C532.845502 444.851434 554.383137 559.3654 554.450145 559.715648 554.184349 559.479416 479.065444 492.896521 476.295809 490.442549L532.102466 440.899593zM418.101458 482.371195C418.104436 482.373431 418.11486 482.380138 418.11486 482.380138 418.11486 482.380138 418.115604 482.362998 418.116349 482.337661 418.539239 482.397278 473.020641 490.058767 476.020334 490.47981L409.325736 531.011704C410.099298 526.723774 417.860977 483.705119 418.101458 482.371195L418.101458 482.371195zM417.972655 482.383864C417.39267 485.599439 409.290743 530.507943 409.21778 530.912591 409.063663 530.53179 395.738145 497.548858 394.763561 495.138109L417.972655 482.383864zM416.209619 420.766294L355.950699 439.124507C357.983999 436.511805 415.969882 362.004362 416.186539 361.725654 416.187283 362.075902 416.20813 417.874139 416.209619 420.766294L416.209619 420.766294zM481.485896 368.811097L536.394655 359.376757 532.091298 440.597784 481.485896 368.811097zM481.397298 368.900522C481.51121 369.062978 529.225619 436.749527 531.964728 440.635044 527.138714 438.552186 462.125999 410.489867 460.150028 409.637349 460.208845 409.577732 460.244582 409.541962 460.244582 409.541962 460.244582 409.541962 460.211079 409.550159 460.160451 409.562828 461.752247 406.51567 481.30721 369.073411 481.397298 368.900522L481.397298 368.900522zM476.241458 490.324061C476.19902 490.113167 460.171619 409.993559 460.125458 409.761799 460.342115 409.855695 531.849327 440.720743 532.028758 440.798245 531.883575 440.927911 476.40302 490.181726 476.241458 490.324061L476.241458 490.324061zM460.011546 409.831848C460.074831 410.144836 475.280276 486.150893 476.123823 490.369519L418.148364 482.215447C419.825035 479.318076 459.851473 410.109811 460.011546 409.831848L460.011546 409.831848zM416.219298 420.892234C416.234188 421.036059 419.332159 448.467186 419.523502 450.164772 417.581035 449.829428 359.361371 439.796685 356.049721 439.22511 360.181838 437.965707 416.081561 420.933966 416.219298 420.892234L416.219298 420.892234zM459.837327 409.773722C459.527604 410.084474 421.384816 448.355405 419.642626 450.10441L416.339911 420.858699C418.923415 420.199935 459.418159 409.881032 459.837327 409.773722L459.837327 409.773722zM416.311619 361.704043L459.924436 409.62319C455.983663 410.626986 416.481371 420.693263 416.334699 420.732014 416.333955 420.578501 416.313108 366.476359 416.311619 361.704043L416.311619 361.704043zM419.656772 450.266865C419.688042 450.234821 455.131181 414.671978 459.747984 410.040507 456.568115 415.539401 420.542013 477.845544 418.131984 482.013495 418.30248 478.462577 419.654539 450.311578 419.656772 450.266865L419.656772 450.266865zM418.000203 482.150614C417.817794 482.025419 356.509838 439.669254 356.047488 439.35105 356.599926 439.445692 419.422991 450.272827 419.530947 450.292202 419.525736 450.400257 418.011371 481.929287 418.000203 482.150614L418.000203 482.150614zM394.705488 494.994283C394.705488 494.994283 394.697298 495.003971 394.691342 495.009933 394.139648 494.217776 358.930291 443.655375 356.02813 439.488168 360.260013 442.411622 414.586553 479.944051 417.948086 482.265376 416.79705 482.898058 395.037546 494.845242 394.7174 495.022601 394.709955 495.004716 394.705488 494.994283 394.705488 494.994283L394.705488 494.994283zM459.963152 409.48011C458.232874 407.577592 418.149853 363.540237 416.362991 361.577358L454.9994 351.613174C455.181064 353.737018 459.681721 406.194485 459.963152 409.48011L459.963152 409.48011zM355.856889 439.437494L394.606466 495.104574C392.64613 497.298468 362.022305 531.554961 361.832451 531.768091 361.814582 531.483421 356.244042 445.431952 355.856889 439.437494L355.856889 439.437494zM532.284874 441.196932C532.675006 441.965242 565.139298 505.999524 565.158655 506.036784 565.150466 506.079261 554.669035 558.930943 554.546188 559.554683 554.428553 558.927217 532.444947 442.045724 532.284874 441.196932L532.284874 441.196932zM797.446904 566.649068C797.142393 566.742219 723.178247 589.153622 718.917327 590.445068L706.427166 509.852997C710.342626 512.298772 797.15505 566.516421 797.446904 566.649068L797.446904 566.649068zM758.354101 465.840979L824.037634 500.926889 797.700787 566.538032 758.354101 465.840979zM758.121064 465.761987L797.420101 566.47618C797.384364 566.459785 706.503108 509.872372 706.440568 509.781457 706.526933 509.707681 758.121064 465.761987 758.121064 465.761987L758.121064 465.761987zM807.0014 384.733224C807.148072 384.707887 858.431736 375.845121 861.863254 375.251935L821.049853 418.329462C819.936042 415.666831 807.057984 384.871832 807.0014 384.733224L807.0014 384.733224zM811.215415 303.282672C811.202013 303.536043 806.874831 384.2548 806.859196 384.538724 806.661896 384.334537 761.826568 337.799243 761.726057 337.694168 761.845181 337.61145 811.008436 303.427988 811.215415 303.282672L811.215415 303.282672zM738.212451 284.819385C738.44921 284.879002 805.676145 301.811631 811.137239 303.18654L761.657561 337.590584C760.76413 335.580757 738.314451 285.046674 738.212451 284.819385L738.212451 284.819385zM744.678655 240.211945L738.070247 284.528754C736.561838 281.643306 712.976013 236.490374 712.870291 236.288422 713.098115 236.315995 743.199283 240.029369 744.678655 240.211945L744.678655 240.211945zM689.802655 186.646353C690.127269 186.818497 727.410874 206.64328 727.517342 206.699916 727.465225 206.804245 713.633429 234.479056 712.836042 236.072312L712.783926 236.113298C712.181604 234.816635 689.956028 186.976481 689.802655 186.646353L689.802655 186.646353zM624.85248 153.6202C625.620831 154.010689 689.58302 186.530846 689.620991 186.550221 689.638115 186.588972 712.33721 235.448572 712.605239 236.023873 712.139911 235.587181 625.482349 154.21115 624.85248 153.6202L624.85248 153.6202zM545.981166 177.29026C546.285677 177.197109 620.249823 154.785706 624.510743 153.49426L637.000904 234.086331C633.085444 231.640556 546.27302 177.422907 545.981166 177.29026L545.981166 177.29026zM585.307006 278.177341L546.008714 177.463148C546.043707 177.480288 636.924218 234.066955 636.987502 234.158616 636.901882 234.232392 585.307006 278.177341 585.307006 278.177341L585.307006 278.177341zM569.849166 102.56298C569.992115 102.694137 624.308232 153.231201 624.466072 153.378007 624.259838 153.43986 546.127093 177.115136 545.901502 177.18295 545.972977 176.958642 569.788115 102.748537 569.849166 102.56298L569.849166 102.56298zM759.338364 199.408795C759.19467 199.808227 745.170042 238.802011 744.70248 240.101654L712.92613 236.169189 712.935064 236.152794C715.672685 233.984982 759.010028 199.667383 759.338364 199.408795L759.338364 199.408795zM778.107108 237.855596C777.929911 237.867519 746.760349 239.96081 744.837984 240.088986L759.479823 199.383458C760.860918 202.235371 778.030422 237.696866 778.107108 237.855596L778.107108 237.855596zM778.178582 237.717732C778.018509 237.386114 759.606393 199.359611 759.553531 199.251556 759.660743 199.195666 788.57067 184.287768 788.798495 184.171516 788.747123 184.422651 778.250801 237.356306 778.178582 237.717732L778.178582 237.717732zM801.270042 163.754291C801.37502 163.897371 861.772422 246.172869 866.829239 253.062322 860.98248 247.878651 791.416991 186.219349 788.96378 184.04483 789.520685 183.125988 801.176977 163.907059 801.270042 163.754291L801.270042 163.754291zM792.877006 111.734262C793.171838 112.107611 831.499269 160.643046 831.641473 160.821896 831.413648 160.843507 801.387677 163.567989 801.302801 163.576186 801.270787 163.380942 792.952947 112.202998 792.877006 111.734262L792.877006 111.734262zM867.001225 253.084678C862.480466 246.926274 801.506057 163.864582 801.380977 163.693929 801.588699 163.674554 829.379604 161.153513 831.719648 160.940384L867.001225 253.084678zM867.211926 253.285884C865.69086 249.314668 831.948218 161.188538 831.862597 160.966466 832.0934 161.029064 883.707634 174.965209 885.589794 175.472696L867.211926 253.285884zM934.08521 212.803174C931.396728 214.436671 869.837123 251.836454 867.320626 253.366367 868.158218 249.819919 885.657546 175.718615 885.701473 175.536039 885.850378 175.651546 932.224641 211.370138 934.08521 212.803174L934.08521 212.803174zM981.50702 212.084048C978.829707 215.079041 948.890101 248.571695 948.762042 248.713285 948.692057 248.538161 935.609254 216.155122 934.275809 212.855339L981.50702 212.084048zM1038.0381 252.720271C1034.9781 255.871758 987.888349 304.360244 987.699984 304.553998 987.683604 304.284233 982.068393 217.542701 981.717721 212.131741L1038.0381 252.720271zM927.218451 323.174525L987.477371 304.814821C985.444816 307.427522 927.458933 381.934966 927.240787 382.214419 927.240787 381.864171 927.219196 326.064444 927.218451 323.174525L927.218451 323.174525zM861.942174 375.12823L806.979809 384.611009 811.337517 303.341544 861.942174 375.12823zM862.030772 375.038805C861.916115 374.87635 814.202451 307.189801 811.463342 303.304283 816.288612 305.387141 881.304305 333.450951 883.278787 334.302724 883.219225 334.361596 883.183488 334.398111 883.183488 334.398111 883.183488 334.398111 883.216247 334.389168 883.266874 334.3765 881.675823 337.424403 862.12086 374.865917 862.030772 375.038805L862.030772 375.038805zM811.32486 303.039734C810.581823 299.087893 789.044933 184.573928 788.97867 184.224425 789.244466 184.460657 864.363371 251.042807 867.132261 253.497524L811.32486 303.039734zM925.326612 261.568132C925.324378 261.566642 925.313955 261.55919 925.313955 261.55919 925.313955 261.55919 925.312466 261.57633 925.310977 261.602412 924.891064 261.54205 870.407429 253.881306 867.406991 253.459518L934.102334 212.928369C933.328772 217.215554 925.567093 260.233464 925.326612 261.568132L925.326612 261.568132zM925.45467 261.556209C926.0354 258.340634 934.138072 213.431385 934.210291 213.026737 934.364407 213.407538 947.69067 246.390469 948.663765 248.801219L925.45467 261.556209zM927.208772 323.047094C927.193137 322.903269 924.095166 295.472887 923.903079 293.774556 925.84778 294.110645 984.065955 304.142643 987.378349 304.714963 983.244743 305.973621 927.346509 323.005362 927.208772 323.047094L927.208772 323.047094zM883.591488 334.166351C883.899721 333.855599 922.042509 295.583923 923.785444 293.834918L927.088159 323.081374C924.503911 323.739393 884.009166 334.058296 883.591488 334.166351L883.591488 334.166351zM927.117196 382.23603L883.503634 334.316883C887.444407 333.312342 926.946699 323.246065 927.093371 323.207314 927.094115 323.360827 927.114962 377.463714 927.117196 382.23603L927.117196 382.23603zM883.416524 334.10748C883.353239 333.794492 868.148539 257.78918 867.304247 253.570554L925.278962 261.724626C923.60378 264.621252 883.576597 333.829517 883.416524 334.10748L883.416524 334.10748zM925.427123 261.789459C925.608787 261.914654 986.918977 304.270819 987.379838 304.589023 986.828889 304.493636 924.005079 293.666501 923.897867 293.647126 923.902334 293.53907 925.416699 262.010041 925.427123 261.789459L925.427123 261.789459zM883.680086 333.899566C886.859955 328.401418 922.885312 266.094529 925.296086 261.926578 925.124845 265.476751 923.774276 293.62775 923.771298 293.673208 923.740028 293.704507 888.2954 329.268095 883.680086 333.899566L883.680086 333.899566zM948.721838 248.94579C948.721838 248.94579 948.730772 248.935357 948.735984 248.93014 949.288422 249.721552 984.49778 300.283953 987.400685 304.451905 983.168057 301.527706 928.840772 263.996022 925.479984 261.673952 926.631765 261.042015 948.38978 249.094086 948.711415 248.917472 948.71886 248.935357 948.721838 248.94579 948.721838 248.94579L948.721838 248.94579zM811.399312 303.141083C811.54375 303.011416 867.02505 253.757601 867.186612 253.615267 867.227561 253.826161 883.255707 333.945769 883.302612 334.177529 883.08521 334.083633 811.577999 303.218584 811.399312 303.141083L811.399312 303.141083zM987.571926 304.502579L948.821604 248.834754C950.78194 246.641605 981.405765 212.385112 981.595619 212.171237 981.613488 212.455907 987.184028 298.508121 987.571926 304.502579L987.571926 304.502579zM811.142451 302.743141C810.753064 301.974086 778.288028 237.941295 778.26867 237.902544 778.277604 237.860067 788.759035 185.008385 788.881882 184.384645 789.000261 185.012111 810.983123 301.894349 811.142451 302.743141L811.142451 302.743141zM744.894568 240.20971C747.202597 240.054706 778.085517 237.981536 778.165926 237.97632 778.187517 238.021032 778.228466 238.105986 778.228466 238.105986L778.22921 238.100769C778.384816 238.40705 808.617765 298.037149 811.065765 302.867591L744.894568 240.20971zM744.794057 240.270817C746.870539 242.237422 810.730728 302.720785 811.069488 303.041225 810.613093 302.927208 739.339663 284.974388 738.173736 284.680031L744.794057 240.270817zM883.464918 334.459218C885.195196 336.361736 925.277473 380.399091 927.065079 382.36197L888.42867 392.326899C888.246261 390.203055 883.746349 337.745588 883.464918 334.459218L883.464918 334.459218zM1037.43504 320.966472L987.761035 304.669506C990.885809 301.45095 1037.8609 253.081697 1038.06937 252.867077 1038.06714 253.171122 1037.45886 318.421584 1037.43504 320.966472L1037.43504 320.966472zM861.797736 575.594552C861.732218 575.799484 845.731619 628.604963 845.660145 628.830761 845.515707 628.642969 798.090174 566.819721 797.972539 566.664717 798.161648 566.622241 861.587035 575.640755 861.797736 575.594552L861.797736 575.594552zM917.71905 586.078146C917.71905 586.078146 944.182466 586.265938 944.2934 586.265938 944.305312 586.37921 951.059648 653.850394 951.059648 653.850394L845.950509 628.900811C845.984013 628.881436 917.71905 586.078146 917.71905 586.078146L917.71905 586.078146zM686.700962 667.464609C686.338378 667.525716 644.718655 674.617121 644.600276 674.637242 644.577196 674.518754 638.338072 642.572407 638.288933 642.321272 638.516013 642.43976 686.374115 667.294702 686.700962 667.464609L686.700962 667.464609zM758.282626 653.916717C757.436845 654.076937 686.945166 667.421387 686.902728 667.429584 686.864758 667.408719 639.081108 642.592528 638.517502 642.300406 639.151838 642.362259 757.423444 653.833254 758.282626 653.916717L758.282626 653.916717zM656.727108 76.4754638C657.089692 76.4136115 698.709415 69.3222068 698.828539 69.3028313 698.850874 69.4205743 705.089999 101.36692 705.138393 101.618056 704.912801 101.499568 657.05321 76.6446262 656.727108 76.4754638L656.727108 76.4754638zM585.144699 90.0226104C585.991225 89.8631357 656.482159 76.5186859 656.524597 76.5112338 656.561823 76.5306092 704.346962 101.347545 704.911312 101.638922 704.275488 101.577814 586.004626 90.1060737 585.144699 90.0226104L585.144699 90.0226104zM1038.19668 252.55707C1038.19668 252.55707 1038.16765 252.586879 1038.12595 252.630101L981.708787 211.986425C981.703575 211.916376 981.700597 211.867192 981.700597 211.867192 981.700597 211.867192 981.668582 211.902962 981.608276 211.970031L934.229648 212.740577C934.188699 212.639228 934.164874 212.580357 934.164874 212.580357 934.164874 212.580357 934.156685 212.622834 934.144772 212.692138L885.624787 175.319928 885.618086 175.351227 831.796334 160.818915 792.677473 111.281175C792.677473 111.281175 801.171765 163.453227 801.193356 163.585129 801.172509 163.587365 801.149429 163.5896 801.149429 163.5896 801.149429 163.5896 801.181444 163.634313 801.200801 163.658159 801.191867 163.670083 789.030787 183.695327 788.838699 184.009805L759.584057 199.095808 759.604159 199.039172 759.438874 199.170329 759.389736 199.195666 759.394203 199.206099 713.066845 235.889736 727.683371 206.647006C727.683371 206.647006 689.940393 186.578539 689.779575 186.492095L689.659707 186.430243C689.616524 186.406396 689.533137 186.362429 689.533137 186.362429L689.535371 186.3669C689.226393 186.210406 628.560962 155.366224 624.713999 153.410051 627.386101 151.697562 705.293254 101.761881 705.293254 101.761881L698.927561 69.1590061C698.927561 69.1590061 656.79486 76.3376002 656.614685 76.3681538L656.482159 76.39051C656.43302 76.3994525 656.340699 76.4151019 656.340699 76.4151019L656.345166 76.4173375C655.99375 76.4836611 584.695006 89.9816239 584.695006 89.9816239L584.699473 90.1053285C584.699473 90.1053285 704.676787 101.742506 705.037882 101.776785 704.737838 101.966068 627.659342 151.372651 624.600831 153.333295L569.789604 102.337927C569.789604 102.337927 545.705692 177.214994 545.683356 177.286534L585.198305 278.415808 637.135663 234.195876 637.137152 234.195876 637.137152 234.194386 637.152787 234.180972C637.152787 234.180972 637.137152 234.171285 637.133429 234.169049 636.958466 233.042294 625.255269 157.364128 624.665604 153.614984 629.344947 158.009478 712.364758 235.970218 712.622364 236.21092L712.728831 236.283951C714.255108 239.205914 738.045677 284.751571 738.047166 284.755297 738.0494 284.758278 760.790933 335.9474 761.553327 337.66287L761.535458 337.675538 806.844305 384.704161C806.875575 384.797312 806.96194 385.018639 807.095955 385.351002 806.946305 384.972436 806.868874 384.765268 806.877809 384.763032 806.897911 384.810725 809.825385 391.809724 813.001531 399.407126 816.565575 407.812333 820.455721 416.939648 821.049108 418.330952L820.984334 418.399511 821.016349 418.42932 820.938174 418.426339C820.877867 418.470306 757.987794 465.644989 757.987794 465.644989L758.048845 465.677778 706.292407 509.743451 706.290174 509.743451 706.290918 509.745687 706.275283 509.758356C706.275283 509.758356 706.290918 509.768043 706.294641 509.771024 706.46886 510.897034 718.172801 586.575945 718.762466 590.32509 714.083867 585.930595 631.062568 507.96911 630.805707 507.729153L630.699984 507.656122C629.172962 504.732669 605.382393 459.188502 605.380159 459.184031 605.37867 459.18105 582.637137 407.992674 581.874743 406.276458L581.892612 406.264535 536.62248 359.19269C536.59121 359.099539 533.604918 352.13482 530.428772 344.539654 526.865473 336.132956 522.415444 325.390775 522.415444 325.390775L481.396553 368.683667 481.380918 368.662801C481.380918 368.662801 481.372728 368.679941 481.358582 368.706023L455.087999 351.482017 416.310874 361.463341 416.310874 361.362738C416.310874 361.362738 416.272159 361.412667 416.215575 361.485697L338.746947 369.507122 338.700787 369.582388 338.693342 369.583879 338.694831 369.592076 305.878378 422.855113 305.231385 491.382257C305.231385 491.382257 305.260422 491.352449 305.301371 491.309972L361.720028 531.952902C361.724495 532.023697 361.726728 532.072136 361.726728 532.072136 361.726728 532.072136 361.758743 532.037111 361.818305 531.969297L409.198422 531.198751C409.240115 531.3001 409.263196 531.358971 409.263196 531.358971 409.263196 531.358971 409.270641 531.316494 409.283298 531.24719L457.802539 568.6194 457.809984 568.588846 511.630991 583.120413 550.750597 632.658153C550.750597 632.658153 542.256305 580.486101 542.235458 580.354199 542.255561 580.351963 542.277896 580.349728 542.277896 580.349728 542.277896 580.349728 542.245882 580.305015 542.228013 580.281914 542.236203 580.269245 554.397283 560.244746 554.588626 559.929522L583.844013 544.84352 583.823911 544.900156 583.989196 544.769745 584.039079 544.743662C584.039079 544.743662 584.034612 544.73621 584.033867 544.733975L630.361225 508.049592 615.744699 537.293067C615.744699 537.293067 653.486933 557.360789 653.649239 557.447978L653.766874 557.510575C653.811546 557.533677 653.894188 557.577644 653.894188 557.577644L653.891955 557.573173C654.200933 557.728922 714.866364 588.573104 718.714072 590.529277 716.041969 592.241766 638.134072 642.177447 638.134072 642.177447L644.501254 674.780322C644.501254 674.780322 686.632466 667.601728 686.813385 667.571919L686.945911 667.548818C686.994305 667.540621 687.087371 667.524226 687.087371 667.524226L687.082904 667.522736C687.433575 667.455667 758.733809 653.957704 758.733809 653.957704L758.727853 653.833999C758.727853 653.833999 638.749794 642.197568 638.389444 642.163288 638.690232 641.97326 715.768728 592.567422 718.827239 590.606778L773.637721 641.602146C773.637721 641.602146 797.551137 567.257158 797.740991 566.666208L797.799064 566.643852C799.387137 568.718512 845.575269 629.010357 845.620685 629.068483L951.193663 654.076192 944.405823 586.142979 917.687035 585.962639C917.687035 585.962639 846.073356 628.656383 845.791926 628.825545 845.889458 628.520009 861.24232 577.868183 861.954086 575.520776L862.025561 575.685467 909.264218 552.763597C909.264218 552.763597 940.325079 492.339851 940.375707 492.239993L940.252115 492.074556 909.122013 552.64809 861.955575 575.516305C861.971955 575.46265 861.983123 575.42688 861.983123 575.42688L797.899575 566.605846 858.758582 543.291996 824.129955 500.744313C823.948291 495.923559 821.049108 419.025486 821.03794 418.707282 821.263531 418.945004 878.692509 479.414953 878.692509 479.414953L904.46575 486.465371 929.334393 422.893119 821.123561 418.434536 862.032261 375.256406 862.046407 375.277272C862.046407 375.277272 862.055342 375.260132 862.069488 375.233305L888.339327 392.45731 927.117196 382.475987 927.117196 382.57659C927.117196 382.57659 927.156655 382.526661 927.213239 382.453631L1004.68112 374.432951 1004.72654 374.35694 1004.73473 374.355449 1004.73249 374.347997 1037.54969 321.08496 1038.19668 252.55707z" opacity=".5" mask="url(#b)"/>
    <path fill="#FEFEFE" d="M820.930654,418.368063 C820.886727,418.260753 816.768756,408.414313 813.002201,399.407722 C810.35318,393.159148 807.888055,387.317458 807.09588,385.350853 C808.862639,389.828066 820.735588,418.344217 820.930654,418.368063" opacity=".5" mask="url(#b)"/>
    <path fill="#FFFFFF" d="M72.2120131,63.9137065 C72.9900423,64.3884044 73.2372248,65.4033785 72.7637066,66.1813762 C72.2894438,66.9601192 71.2754,67.2067832 70.4973708,66.7328306 C69.7193416,66.2588779 69.4729036,65.2431586 69.9471664,64.4644157 C70.4206847,63.6864179 71.4347285,63.4397539 72.2120131,63.9137065 Z M57.9424365,124.275601 C58.7204657,124.750298 58.9669036,125.765272 58.4933854,126.54327 C58.0198672,127.322013 57.0050788,127.568677 56.2270496,127.094725 C55.449765,126.620772 55.203327,125.605053 55.6768453,124.82631 C56.1503635,124.048312 57.1644073,123.801648 57.9424365,124.275601 Z M171.942436,124.913707 C172.720466,125.388404 172.967648,126.403378 172.493385,127.181376 C172.019867,127.960119 171.005079,128.206783 170.22705,127.732831 C169.449765,127.258878 169.203327,126.243159 169.676845,125.464416 C170.150364,124.686418 171.165152,124.439754 171.942436,124.913707 Z M118.942436,86.9137065 C119.720466,87.3884044 119.967648,88.4033785 119.493385,89.1813762 C119.019867,89.9601192 118.005079,90.2067832 117.22705,89.7328306 C116.449765,89.2588779 116.203327,88.2431586 116.676845,87.4644157 C117.150364,86.6864179 118.165152,86.4397539 118.942436,86.9137065 Z M119.942436,14.9137065 C120.720466,15.3884044 120.967648,16.4033785 120.493385,17.1813762 C120.019867,17.9601192 119.005079,18.2067832 118.22705,17.7328306 C117.449765,17.2588779 117.203327,16.2431586 117.676845,15.4644157 C118.150364,14.6864179 119.165152,14.4397539 119.942436,14.9137065 Z M148.650218,143.154714 C149.428247,143.628667 149.675429,144.643641 149.201166,145.422384 C148.727648,146.201127 147.71286,146.447046 146.934831,145.973093 C146.157546,145.499141 145.911108,144.484167 146.384626,143.705424 C146.858145,142.926681 147.872933,142.680017 148.650218,143.154714 Z M106.832451,184.761944 C107.61048,185.235897 107.857663,186.251616 107.384145,187.029614 C106.909882,187.808357 105.895838,188.055021 105.117809,187.580323 C104.33978,187.106371 104.093342,186.091397 104.567604,185.312654 C105.041123,184.533911 106.055166,184.287992 106.832451,184.761944 Z M171.482582,181.90556 C172.260612,182.379513 172.50705,183.394487 172.033531,184.17323 C171.560013,184.951973 170.545225,185.197891 169.767196,184.723939 C168.989911,184.249986 168.743473,183.235012 169.216991,182.456269 C169.690509,181.677526 170.704553,181.430862 171.482582,181.90556 Z M127.058977,219.538593 C127.837006,220.012545 128.084188,221.027519 127.609926,221.806262 C127.136407,222.585005 126.121619,222.830924 125.34359,222.356971 C124.566305,221.883019 124.319867,220.868045 124.793385,220.089302 C125.266904,219.310559 126.281692,219.063895 127.058977,219.538593 Z M158.204714,226.12102 C158.982743,226.594973 159.229926,227.610692 158.756407,228.38869 C158.282145,229.167433 157.268101,229.414097 156.490072,228.939399 C155.712042,228.465446 155.465604,227.450472 155.939867,226.671729 C156.413385,225.892986 157.427429,225.647067 158.204714,226.12102 Z M244.818349,211.341298 C245.596378,211.815251 245.842816,212.830225 245.369298,213.608968 C244.89578,214.387711 243.880991,214.63363 243.102962,214.159677 C242.325677,213.685725 242.079239,212.670751 242.552758,211.892008 C243.026276,211.113265 244.04032,210.866601 244.818349,211.341298 Z M240.351196,136.447837 C241.129225,136.92179 241.375663,137.936764 240.902145,138.715507 C240.428626,139.49425 239.413838,139.740169 238.635809,139.266216 C237.858524,138.792263 237.612086,137.777289 238.085604,136.998546 C238.559123,136.219803 239.573166,135.973139 240.351196,136.447837 Z M350.292305,119.680645 C351.070334,120.154597 351.317517,121.169571 350.843999,121.948314 C350.369736,122.727057 349.355692,122.972976 348.577663,122.499023 C347.799634,122.025071 347.553196,121.010097 348.027458,120.231354 C348.500977,119.452611 349.51502,119.205947 350.292305,119.680645 Z M393.102524,88.9407911 C393.880553,89.4147437 394.127736,90.4297178 393.654218,91.2084608 C393.179955,91.9872037 392.165911,92.2331225 391.387882,91.7591699 C390.609853,91.2852172 390.363415,90.2702432 390.837677,89.4915002 C391.311196,88.7127573 392.325239,88.4660932 393.102524,88.9407911 Z M399.989385,156.009562 C400.767415,156.483515 401.014597,157.498489 400.541079,158.277232 C400.066816,159.055975 399.052772,159.301894 398.274743,158.827941 C397.496714,158.353988 397.250276,157.339014 397.724539,156.560271 C398.198057,155.781528 399.212101,155.534864 399.989385,156.009562 Z M426.420042,156.382167 C427.198072,156.856119 427.445254,157.871093 426.971736,158.649836 C426.497473,159.428579 425.483429,159.674498 424.7054,159.200545 C423.927371,158.726593 423.680933,157.711619 424.155196,156.932876 C424.628714,156.154133 425.642758,155.907469 426.420042,156.382167 Z M498.452889,113.718976 C499.230918,114.192929 499.478101,115.207903 499.004582,115.986646 C498.53032,116.765389 497.516276,117.011307 496.738247,116.537355 C495.960218,116.063402 495.71378,115.048428 496.188042,114.269685 C496.661561,113.490942 497.675604,113.244278 498.452889,113.718976 Z M473.697415,191.779574 C474.475444,192.253526 474.722626,193.2685 474.249108,194.047243 C473.774845,194.825986 472.760801,195.071905 471.982772,194.597952 C471.204743,194.124 470.958305,193.109026 471.432568,192.330283 C471.906086,191.55154 472.92013,191.304876 473.697415,191.779574 Z M546.84705,175.757589 C547.625079,176.231542 547.872261,177.246516 547.398743,178.025259 C546.92448,178.804002 545.910436,179.049921 545.132407,178.575968 C544.354378,178.102015 544.10794,177.087041 544.582203,176.308298 C545.055721,175.529555 546.069765,175.282891 546.84705,175.757589 Z M570.485736,101.423035 C571.263765,101.896987 571.510947,102.911961 571.037429,103.690704 C570.563166,104.469447 569.549123,104.715366 568.771093,104.241413 C567.993064,103.767461 567.746626,102.752487 568.220889,101.973744 C568.694407,101.195001 569.708451,100.948337 570.485736,101.423035 Z M586.741707,88.6300391 C587.519736,89.1039918 587.766174,90.119711 587.292655,90.8977088 C586.819137,91.6764517 585.804349,91.9231158 585.02632,91.4484179 C584.249035,90.9744653 584.002597,89.9594912 584.476115,89.1807483 C584.949634,88.4020053 585.963677,88.1560865 586.741707,88.6300391 Z M625.704962,151.972767 C626.482991,152.44672 626.730174,153.462439 626.255911,154.240437 C625.782393,155.01918 624.767604,155.265844 623.989575,154.791146 C623.212291,154.317194 622.965853,153.30222 623.439371,152.523477 C623.912889,151.744734 624.927677,151.498815 625.704962,151.972767 Z M586.245108,276.670753 C587.023137,277.145451 587.27032,278.160425 586.796057,278.938422 C586.322539,279.717165 585.30775,279.963829 584.529721,279.489877 C583.752436,279.015924 583.505999,278.000205 583.979517,277.221462 C584.453035,276.443464 585.467823,276.1968 586.245108,276.670753 Z M637.741707,232.703447 C638.519736,233.178145 638.766174,234.193119 638.292655,234.971117 C637.819137,235.74986 636.804349,235.996524 636.02632,235.522571 C635.249035,235.048619 635.002597,234.032899 635.476115,233.254156 C635.949634,232.476159 636.963677,232.229495 637.741707,232.703447 Z M691.098874,185.631603 C691.876904,186.105555 692.124086,187.12053 691.650568,187.899272 C691.176305,188.678015 690.162261,188.923934 689.384232,188.449982 C688.606203,187.976029 688.359765,186.961055 688.834028,186.182312 C689.307546,185.403569 690.32159,185.156905 691.098874,185.631603 Z M705.989385,100.180772 C706.767415,100.654725 707.014597,101.670444 706.541079,102.448442 C706.066816,103.227185 705.052772,103.473849 704.274743,102.999151 C703.496714,102.525198 703.250276,101.510224 703.724539,100.731481 C704.198057,99.9527381 705.212101,99.7068193 705.989385,100.180772 Z M657.967488,75.0918351 C658.745517,75.5665329 658.992699,76.581507 658.519181,77.3595047 C658.044918,78.1382477 657.030874,78.3849117 656.252845,77.9109591 C655.474816,77.4370064 655.228378,76.4212871 655.702641,75.6425442 C656.176159,74.8645464 657.190203,74.6178824 657.967488,75.0918351 Z M699.785254,67.7641992 C700.563283,68.2381519 700.810466,69.2538711 700.336203,70.0318689 C699.862685,70.8106118 698.847896,71.0572759 698.069867,70.582578 C697.292582,70.1086254 697.046145,69.0936513 697.519663,68.3149083 C697.993181,67.5361654 699.007969,67.2902466 699.785254,67.7641992 Z M728.325152,205.503334 C729.103181,205.978032 729.350364,206.993006 728.876845,207.771004 C728.402582,208.549747 727.388539,208.796411 726.610509,208.322459 C725.83248,207.848506 725.586042,206.832787 726.060305,206.054044 C726.533823,205.276046 727.547867,205.029382 728.325152,205.503334 Z M760.216159,198.051249 C760.994188,198.525947 761.240626,199.540921 760.767108,200.318918 C760.29359,201.097661 759.278801,201.344325 758.500772,200.870373 C757.723488,200.39642 757.47705,199.380701 757.950568,198.601958 C758.424086,197.82396 759.43813,197.577296 760.216159,198.051249 Z M745.821502,238.541411 C746.599531,239.015364 746.846714,240.030338 746.373196,240.809081 C745.898933,241.587824 744.884889,241.833743 744.10686,241.35979 C743.328831,240.885837 743.082393,239.870863 743.556655,239.09212 C744.030174,238.313377 745.044218,238.066713 745.821502,238.541411 Z M739.120772,283.37763 C739.898801,283.852328 740.145984,284.867302 739.672466,285.6453 C739.198203,286.424043 738.184159,286.670707 737.40613,286.196754 C736.628101,285.722801 736.381663,284.707082 736.855926,283.928339 C737.329444,283.150341 738.343488,282.903677 739.120772,283.37763 Z M811.960685,301.759615 C812.738714,302.233568 812.985152,303.249287 812.511634,304.027285 C812.038115,304.806028 811.023327,305.052692 810.245298,304.577994 C809.468013,304.104041 809.221575,303.089067 809.695093,302.310324 C810.168612,301.531581 811.182655,301.285662 811.960685,301.759615 Z M762.821999,336.287364 C763.600028,336.762062 763.846466,337.777036 763.372947,338.555033 C762.899429,339.333776 761.884641,339.58044 761.106612,339.106488 C760.329327,338.632535 760.082889,337.616816 760.556407,336.838073 C761.029926,336.060075 762.043969,335.813411 762.821999,336.287364 Z M807.865794,383.235503 C808.643823,383.710201 808.890261,384.725175 808.416743,385.503173 C807.943225,386.281916 806.928436,386.52858 806.150407,386.054628 C805.373123,385.580675 805.126685,384.564956 805.600203,383.786213 C806.073721,383.008215 807.087765,382.761551 807.865794,383.235503 Z M862.464086,373.547792 C863.242115,374.02249 863.489298,375.037464 863.015035,375.815462 C862.541517,376.594205 861.526728,376.840869 860.748699,376.366916 C859.971415,375.892963 859.724977,374.877244 860.198495,374.098501 C860.672013,373.320503 861.686801,373.073839 862.464086,373.547792 Z M884.303254,332.810221 C885.081283,333.284173 885.328466,334.299147 884.854947,335.07789 C884.380685,335.856633 883.366641,336.102552 882.588612,335.628599 C881.810582,335.154647 881.564145,334.139673 882.038407,333.36093 C882.511926,332.582187 883.525969,332.335523 884.303254,332.810221 Z M927.982334,321.755797 C928.760364,322.230494 929.007546,323.245469 928.533283,324.023466 C928.059765,324.802209 927.044977,325.048873 926.266947,324.574921 C925.489663,324.100968 925.243225,323.085249 925.716743,322.306506 C926.190261,321.528508 927.20505,321.281844 927.982334,321.755797 Z M924.756305,292.817187 C925.534334,293.291139 925.780772,294.306859 925.307254,295.084856 C924.833736,295.863599 923.818947,296.110263 923.040918,295.635566 C922.263634,295.161613 922.017196,294.146639 922.490714,293.367896 C922.964232,292.589153 923.978276,292.343234 924.756305,292.817187 Z M926.245356,260.15246 C927.023385,260.626412 927.269823,261.641386 926.796305,262.420129 C926.322787,263.198872 925.307999,263.444791 924.529969,262.970838 C923.752685,262.496886 923.506247,261.481912 923.979765,260.703169 C924.453283,259.924426 925.467327,259.677762 926.245356,260.15246 Z M949.821502,247.483914 C950.599531,247.957867 950.846714,248.972841 950.373196,249.751584 C949.898933,250.530327 948.884889,250.776245 948.10686,250.302293 C947.328831,249.82834 947.082393,248.813366 947.556655,248.034623 C948.030174,247.25588 949.044218,247.009216 949.821502,247.483914 Z M988.536831,303.125582 C989.31486,303.60028 989.562042,304.615254 989.088524,305.393252 C988.614261,306.171995 987.600218,306.418659 986.822188,305.944706 C986.044159,305.470754 985.797721,304.455034 986.271984,303.676292 C986.745502,302.898294 987.759546,302.65163 988.536831,303.125582 Z M868.048028,252.451474 C868.826057,252.926172 869.073239,253.941146 868.598977,254.719144 C868.125458,255.497887 867.11067,255.744551 866.332641,255.270598 C865.555356,254.796646 865.308918,253.780926 865.782436,253.002183 C866.255955,252.224186 867.270743,251.977522 868.048028,252.451474 Z M886.661166,174.329024 C887.439196,174.802977 887.686378,175.818696 887.212115,176.596694 C886.738597,177.375437 885.723809,177.622101 884.94578,177.147403 C884.168495,176.673451 883.922057,175.658477 884.395575,174.879734 C884.869093,174.100991 885.883882,173.855072 886.661166,174.329024 Z M935.055327,211.465003 C935.833356,211.939701 936.080539,212.954675 935.606276,213.732673 C935.132758,214.511416 934.117969,214.75808 933.33994,214.284127 C932.562655,213.810174 932.316218,212.794455 932.789736,212.015712 C933.263254,211.237714 934.278042,210.99105 935.055327,211.465003 Z M982.457035,210.719794 C983.235064,211.194492 983.481502,212.209466 983.007984,212.987464 C982.534466,213.766207 981.519677,214.012871 980.741648,213.538918 C979.964364,213.064966 979.717926,212.049247 980.191444,211.270504 C980.664962,210.492506 981.679006,210.245842 982.457035,210.719794 Z M1038.91664,251.209957 C1039.69467,251.683909 1039.94185,252.698884 1039.46759,253.477626 C1038.99407,254.256369 1037.97928,254.502288 1037.20125,254.028336 C1036.42397,253.554383 1036.17753,252.539409 1036.65105,251.760666 C1037.12457,250.981923 1038.13936,250.735259 1038.91664,251.209957 Z M1038.04778,319.272016 C1038.82581,319.745969 1039.07299,320.761688 1038.59947,321.539686 C1038.12521,322.318429 1037.11117,322.565093 1036.33314,322.090395 C1035.55511,321.616443 1035.30867,320.601469 1035.78293,319.822726 C1036.25645,319.043983 1037.27049,318.798064 1038.04778,319.272016 Z M1005.41299,373.051483 C1006.19102,373.525436 1006.4382,374.54041 1005.96394,375.319153 C1005.49042,376.097896 1004.47563,376.343815 1003.6976,375.869862 C1002.92032,375.395909 1002.67388,374.380935 1003.1474,373.602192 C1003.62092,372.823449 1004.63571,372.576785 1005.41299,373.051483 Z M929.843648,421.738195 C930.621677,422.212147 930.86886,423.227867 930.394597,424.005864 C929.921079,424.784607 928.906291,425.031271 928.128261,424.556573 C927.350977,424.082621 927.104539,423.067647 927.578057,422.288904 C928.051575,421.510161 929.066364,421.264242 929.843648,421.738195 Z M821.763108,417.018789 C822.541137,417.492741 822.78832,418.507715 822.314801,419.286458 C821.840539,420.065201 820.826495,420.31112 820.048466,419.837168 C819.270436,419.363215 819.023999,418.348241 819.498261,417.569498 C819.97178,416.790755 820.985823,416.544091 821.763108,417.018789 Z M879.588174,477.876992 C880.366203,478.35169 880.613385,479.366664 880.139123,480.144661 C879.665604,480.923404 878.650816,481.170068 877.872787,480.696116 C877.095502,480.222163 876.849064,479.206444 877.322582,478.427701 C877.796101,477.649703 878.810889,477.403039 879.588174,477.876992 Z M905.274305,484.832768 C906.052334,485.306721 906.299517,486.321695 905.825254,487.100438 C905.351736,487.879181 904.336947,488.1251 903.558918,487.651147 C902.781634,487.177195 902.535196,486.162221 903.008714,485.383478 C903.482232,484.604735 904.49702,484.358071 905.274305,484.832768 Z M889.514933,390.687589 C890.292962,391.162287 890.540145,392.177261 890.066626,392.955259 C889.592364,393.734002 888.57832,393.980666 887.800291,393.506713 C887.022261,393.032761 886.775823,392.017041 887.250086,391.238298 C887.723604,390.460301 888.737648,390.213637 889.514933,390.687589 Z M928.602524,380.876173 C929.380553,381.350126 929.627736,382.3651 929.154218,383.143843 C928.679955,383.922586 927.665911,384.168505 926.887882,383.694552 C926.109853,383.220599 925.863415,382.205625 926.337677,381.426882 C926.811196,380.648139 927.825239,380.401475 928.602524,380.876173 Z M779.449488,236.67839 C780.227517,237.152342 780.474699,238.167316 780.000436,238.946059 C779.526918,239.724802 778.51213,239.970721 777.734101,239.496769 C776.956816,239.022816 776.710378,238.007842 777.183896,237.229099 C777.657415,236.450356 778.672203,236.203692 779.449488,236.67839 Z M789.997181,182.898923 C790.77521,183.372876 791.021648,184.388595 790.54813,185.166593 C790.074612,185.945336 789.059823,186.192 788.281794,185.717302 C787.504509,185.243349 787.258072,184.228375 787.73159,183.449632 C788.205108,182.670889 789.219152,182.42497 789.997181,182.898923 Z M802.033181,162.405687 C802.81121,162.87964 803.058393,163.895359 802.584874,164.673357 C802.110612,165.4521 801.096568,165.698764 800.318539,165.224066 C799.540509,164.750114 799.294072,163.735139 799.768334,162.956397 C800.241853,162.177654 801.255896,161.931735 802.033181,162.405687 Z M832.558728,159.673008 C833.336758,160.147705 833.58394,161.162679 833.110422,161.940677 C832.636159,162.71942 831.622115,162.966084 830.844086,162.492132 C830.066057,162.018179 829.819619,161.00246 830.293882,160.223717 C830.7674,159.445719 831.781444,159.199055 832.558728,159.673008 Z M714.055575,234.566469 C714.833604,235.041167 715.080042,236.056141 714.606524,236.834138 C714.133006,237.612881 713.118218,237.859545 712.340188,237.385593 C711.562904,236.91164 711.316466,235.895921 711.789984,235.117178 C712.263502,234.33918 713.277546,234.092516 714.055575,234.566469 Z M344.708364,142.65766 C345.486393,143.131613 345.733575,144.147332 345.260057,144.92533 C344.785794,145.704073 343.77175,145.950737 342.993721,145.476039 C342.215692,145.002086 341.969254,143.987112 342.443517,143.208369 C342.917035,142.429626 343.931079,142.183708 344.708364,142.65766 Z M354.883794,174.329024 C355.661823,174.802977 355.909006,175.818696 355.434743,176.596694 C354.961225,177.375437 353.946436,177.622101 353.168407,177.147403 C352.391123,176.673451 352.144685,175.658477 352.618203,174.879734 C353.091721,174.100991 354.106509,173.855072 354.883794,174.329024 Z M314.679415,188.239833 C315.457444,188.713785 315.704626,189.72876 315.230364,190.507502 C314.756845,191.286245 313.742057,191.532164 312.964028,191.058212 C312.186743,190.584259 311.940305,189.569285 312.413823,188.790542 C312.887342,188.011799 313.90213,187.765135 314.679415,188.239833 Z M336.14632,213.576924 C336.924349,214.050877 337.171531,215.065851 336.698013,215.844594 C336.22375,216.623337 335.209707,216.869256 334.431677,216.395303 C333.653648,215.92135 333.40721,214.906376 333.881473,214.127633 C334.354991,213.34889 335.369035,213.102226 336.14632,213.576924 Z M361.460188,233.324951 C362.238218,233.798904 362.4854,234.813878 362.011882,235.592621 C361.537619,236.371364 360.523575,236.617283 359.745546,236.14333 C358.967517,235.669377 358.721079,234.654403 359.195342,233.87566 C359.66886,233.096917 360.682904,232.850253 361.460188,233.324951 Z M309.3434,249.71954 C310.121429,250.193492 310.368612,251.208466 309.895093,251.987209 C309.420831,252.765952 308.406787,253.011871 307.628758,252.537918 C306.850728,252.063966 306.604291,251.048992 307.078553,250.270249 C307.552072,249.491506 308.566115,249.244842 309.3434,249.71954 Z M255.241707,270.33648 C256.019736,270.811178 256.266174,271.826152 255.792655,272.60415 C255.319137,273.382893 254.304349,273.629557 253.52632,273.155604 C252.749035,272.681651 252.502597,271.665932 252.976115,270.887189 C253.449634,270.109191 254.463677,269.862527 255.241707,270.33648 Z M190.219312,271.578743 C190.997342,272.052695 191.244524,273.068415 190.771006,273.846412 C190.296743,274.625155 189.282699,274.871819 188.50467,274.397121 C187.726641,273.923169 187.480203,272.908195 187.954466,272.129452 C188.427984,271.350709 189.442028,271.10479 190.219312,271.578743 Z M156.3434,285.862155 C157.121429,286.336108 157.368612,287.351082 156.895093,288.129825 C156.420831,288.908568 155.406787,289.154487 154.628758,288.680534 C153.850728,288.206581 153.604291,287.191607 154.078553,286.412864 C154.552072,285.634121 155.566115,285.387457 156.3434,285.862155 Z M224.095225,338.647439 C224.873254,339.121392 225.120436,340.137111 224.646918,340.915109 C224.172655,341.693852 223.158612,341.940516 222.380582,341.465818 C221.602553,340.991865 221.356115,339.976891 221.830378,339.198148 C222.303896,338.419405 223.31794,338.173487 224.095225,338.647439 Z M216.898641,364.10898 C217.67667,364.582933 217.923108,365.597907 217.44959,366.37665 C216.976072,367.155393 215.961283,367.401312 215.183254,366.927359 C214.405969,366.453407 214.159531,365.438432 214.63305,364.65969 C215.106568,363.880947 216.120612,363.634283 216.898641,364.10898 Z M238.117619,445.460419 C238.895648,445.935117 239.142086,446.950091 238.668568,447.728089 C238.19505,448.506832 237.180261,448.753496 236.402232,448.279543 C235.624947,447.80559 235.378509,446.789871 235.852028,446.011128 C236.325546,445.23313 237.33959,444.986466 238.117619,445.460419 Z M306.117371,489.427724 C306.8954,489.902422 307.142582,490.917396 306.66832,491.695394 C306.194801,492.474137 305.180013,492.720801 304.401984,492.246848 C303.624699,491.772896 303.378261,490.757177 303.85178,489.978434 C304.325298,489.200436 305.340086,488.953772 306.117371,489.427724 Z M307.109823,421.613745 C307.887853,422.088443 308.135035,423.103417 307.661517,423.881414 C307.187254,424.660157 306.17321,424.906821 305.395181,424.432869 C304.617152,423.958916 304.370714,422.943197 304.844977,422.164454 C305.318495,421.386456 306.332539,421.139792 307.109823,421.613745 Z M356.745108,438.008333 C357.523137,438.483031 357.77032,439.498005 357.296057,440.276003 C356.822539,441.054746 355.80775,441.30141 355.029721,440.827457 C354.252436,440.353505 354.005999,439.337785 354.479517,438.559042 C354.953035,437.781045 355.967823,437.534381 356.745108,438.008333 Z M339.62102,368.455782 C340.39905,368.929735 340.646232,369.945454 340.171969,370.723452 C339.698451,371.502195 338.683663,371.748859 337.905634,371.274161 C337.128349,370.800208 336.881911,369.785234 337.355429,369.006491 C337.828947,368.227748 338.843736,367.981829 339.62102,368.455782 Z M416.80375,360.755542 C417.58178,361.229494 417.828218,362.244469 417.354699,363.023211 C416.881181,363.801954 415.866393,364.047873 415.088364,363.573921 C414.311079,363.099968 414.064641,362.084994 414.538159,361.306251 C415.011677,360.527508 416.025721,360.280844 416.80375,360.755542 Z M417.299604,419.627019 C418.077634,420.100971 418.324816,421.115945 417.851298,421.894688 C417.377035,422.673431 416.362991,422.91935 415.584962,422.445398 C414.806933,421.971445 414.560495,420.956471 415.034758,420.177728 C415.508276,419.398985 416.52232,419.152321 417.299604,419.627019 Z M420.526378,448.193099 C421.304407,448.667051 421.550845,449.682771 421.077327,450.460768 C420.603809,451.239511 419.58902,451.486175 418.810991,451.011478 C418.033707,450.537525 417.787269,449.522551 418.260787,448.743808 C418.734305,447.965065 419.748349,447.719146 420.526378,448.193099 Z M362.701312,530.414196 C363.479342,530.888894 363.726524,531.903868 363.252261,532.681865 C362.778743,533.460608 361.763955,533.707272 360.985926,533.23332 C360.208641,532.759367 359.962203,531.743648 360.435721,530.964905 C360.909239,530.186907 361.924028,529.940243 362.701312,530.414196 Z M410.10302,529.668987 C410.88105,530.143685 411.127488,531.158659 410.653969,531.936657 C410.180451,532.7154 409.165663,532.962064 408.387634,532.488111 C407.610349,532.014159 407.363911,530.998439 407.837429,530.219696 C408.310947,529.441699 409.324991,529.195034 410.10302,529.668987 Z M395.460436,494.147876 C396.238466,494.621828 396.485648,495.636802 396.011385,496.415545 C395.537867,497.194288 394.523079,497.440207 393.74505,496.966254 C392.967765,496.492302 392.721327,495.477328 393.194845,494.698585 C393.668364,493.919842 394.683152,493.673178 395.460436,494.147876 Z M418.788655,481.47933 C419.566685,481.953283 419.813867,482.968257 419.340349,483.747 C418.866086,484.525743 417.852042,484.771661 417.074013,484.297709 C416.295984,483.823756 416.049546,482.808782 416.523809,482.030039 C416.997327,481.251296 418.011371,481.004632 418.788655,481.47933 Z M477.11032,489.427724 C477.888349,489.902422 478.134787,490.917396 477.661269,491.695394 C477.18775,492.474137 476.172962,492.720801 475.394933,492.246848 C474.617648,491.772896 474.37121,490.757177 474.844728,489.978434 C475.318247,489.200436 476.332291,488.953772 477.11032,489.427724 Z M461.10302,408.758897 C461.88105,409.233595 462.127488,410.248569 461.653969,411.026567 C461.180451,411.80531 460.165663,412.051974 459.387634,411.578021 C458.610349,411.104068 458.363911,410.088349 458.837429,409.309606 C459.310947,408.531608 460.324991,408.284944 461.10302,408.758897 Z M456.077473,350.260024 C456.855502,350.734722 457.10194,351.749696 456.628422,352.527694 C456.154904,353.306437 455.140115,353.553101 454.362086,353.079148 C453.584801,352.605196 453.338364,351.589476 453.811882,350.810733 C454.2854,350.032736 455.299444,349.786072 456.077473,350.260024 Z M523.332699,324.441901 C524.110728,324.915854 524.357911,325.931573 523.883648,326.709571 C523.41013,327.488314 522.395342,327.734978 521.617312,327.26028 C520.840028,326.786327 520.59359,325.771353 521.067108,324.99261 C521.540626,324.213867 522.555415,323.967948 523.332699,324.441901 Z M482.50813,367.399821 C483.286159,367.874519 483.532597,368.889493 483.059079,369.667491 C482.585561,370.446234 481.570772,370.692898 480.792743,370.218945 C480.015458,369.744993 479.76902,368.729274 480.242539,367.950531 C480.716057,367.172533 481.730101,366.925869 482.50813,367.399821 Z M537.368197,357.846024 C538.146226,358.319977 538.393409,359.335696 537.919891,360.113694 C537.445628,360.892437 536.431584,361.139101 535.653555,360.664403 C534.875526,360.19045 534.629832,359.175476 535.10335,358.396733 C535.576869,357.61799 536.590912,357.372071 537.368197,357.846024 Z M533.135867,439.49875 C533.913896,439.973448 534.160334,440.988422 533.686816,441.76642 C533.213298,442.545163 532.198509,442.791827 531.42048,442.317874 C530.643196,441.843922 530.396758,440.828202 530.870276,440.04946 C531.343794,439.271462 532.357838,439.024798 533.135867,439.49875 Z M582.832947,404.846552 C583.610977,405.32125 583.857415,406.336224 583.383896,407.114222 C582.910378,407.892965 581.89559,408.139629 581.117561,407.665676 C580.340276,407.191723 580.093838,406.176004 580.567356,405.397261 C581.040874,404.619263 582.054918,404.372599 582.832947,404.846552 Z M606.471634,457.942662 C607.249663,458.41736 607.496101,459.432334 607.022582,460.210332 C606.549064,460.989075 605.534276,461.235739 604.756247,460.761786 C603.978962,460.287834 603.732524,459.272115 604.206042,458.493372 C604.679561,457.715374 605.693604,457.46871 606.471634,457.942662 Z M566.081123,504.890802 C566.859152,505.3655 567.10559,506.380474 566.632072,507.158472 C566.158553,507.937215 565.143765,508.183879 564.365736,507.709926 C563.588451,507.235974 563.342013,506.220254 563.815531,505.441511 C564.28905,504.663514 565.303093,504.41685 566.081123,504.890802 Z M599.398641,502.282572 C600.17667,502.75727 600.423108,503.772244 599.94959,504.550242 C599.476072,505.328985 598.461283,505.575649 597.683254,505.101696 C596.905969,504.627744 596.659531,503.612024 597.13305,502.833281 C597.606568,502.055284 598.620612,501.80862 599.398641,502.282572 Z M585.252655,543.082741 C586.030685,543.557439 586.277123,544.572413 585.803604,545.350411 C585.330086,546.129154 584.315298,546.375818 583.537269,545.901865 C582.759984,545.427913 582.513546,544.412193 582.987064,543.633451 C583.460582,542.855453 584.474626,542.608789 585.252655,543.082741 Z M555.285502,558.545819 C556.063531,559.020517 556.309969,560.035491 555.836451,560.813489 C555.362933,561.592232 554.348145,561.838896 553.570115,561.364943 C552.792831,560.890991 552.546393,559.875271 553.019911,559.096528 C553.493429,558.318531 554.507473,558.071867 555.285502,558.545819 Z M543.000831,578.852753 C543.77886,579.327451 544.025298,580.342425 543.55178,581.120422 C543.078261,581.899165 542.063473,582.145829 541.285444,581.671877 C540.508159,581.197924 540.261721,580.182205 540.735239,579.403462 C541.208758,578.625464 542.222801,578.3788 543.000831,578.852753 Z M512.847546,581.647285 C513.625575,582.121983 513.872013,583.136957 513.398495,583.914954 C512.924977,584.693697 511.910188,584.940361 511.132159,584.466409 C510.354874,583.992456 510.108436,582.976737 510.581955,582.197994 C511.055473,581.419996 512.069517,581.173332 512.847546,581.647285 Z M551.562874,631.017352 C552.340904,631.49205 552.587342,632.507024 552.113823,633.285022 C551.640305,634.063765 550.625517,634.310429 549.847488,633.836476 C549.070203,633.362524 548.823765,632.346805 549.297283,631.568062 C549.770801,630.790064 550.784845,630.5434 551.562874,631.017352 Z M616.522728,536.375864 C617.300758,536.850562 617.547196,537.865536 617.073677,538.643534 C616.600159,539.422277 615.585371,539.668941 614.807342,539.194988 C614.030057,538.721036 613.783619,537.705316 614.257137,536.926573 C614.730655,536.148576 615.744699,535.901912 616.522728,536.375864 Z M631.227108,506.753824 C632.005137,507.228522 632.251575,508.243496 631.778057,509.021493 C631.304539,509.800236 630.28975,510.0469 629.511721,509.572948 C628.734436,509.098995 628.487999,508.083276 628.961517,507.304533 C629.435035,506.526535 630.449079,506.279871 631.227108,506.753824 Z M653.935137,555.937589 C654.713166,556.412287 654.959604,557.427261 654.486086,558.205259 C654.012568,558.984002 652.99778,559.230666 652.21975,558.756713 C651.442466,558.282761 651.196028,557.267041 651.669546,556.488298 C652.143064,555.710301 653.157108,555.463637 653.935137,555.937589 Z M719.825648,588.913068 C720.603677,589.387766 720.850115,590.40274 720.376597,591.180738 C719.903079,591.959481 718.888291,592.206145 718.110261,591.732192 C717.332977,591.25824 717.086539,590.24252 717.560057,589.463777 C718.033575,588.68578 719.047619,588.439116 719.825648,588.913068 Z M707.540977,508.616845 C708.319006,509.091543 708.565444,510.106517 708.091926,510.884515 C707.618407,511.663258 706.603619,511.909922 705.82559,511.435969 C705.048305,510.962016 704.801867,509.946297 705.275385,509.167554 C705.748904,508.389556 706.762947,508.142892 707.540977,508.616845 Z M798.559225,565.625301 C799.337254,566.099998 799.583692,567.114972 799.110174,567.89297 C798.636655,568.671713 797.621867,568.918377 796.843838,568.444425 C796.066553,567.970472 795.820115,566.954753 796.293634,566.17601 C796.767152,565.398012 797.781196,565.151348 798.559225,565.625301 Z M759.099371,463.904331 C759.8774,464.379029 760.123838,465.394003 759.65032,466.172001 C759.176801,466.950744 758.162013,467.197408 757.383984,466.723455 C756.606699,466.249502 756.360261,465.233783 756.83378,464.45504 C757.307298,463.677042 758.321342,463.430378 759.099371,463.904331 Z M824.927342,499.581191 C825.705371,500.055889 825.952553,501.070863 825.479035,501.848861 C825.004772,502.627604 823.990728,502.874268 823.212699,502.400315 C822.43467,501.926363 822.188232,500.910643 822.662495,500.1319 C823.136013,499.353903 824.150057,499.107239 824.927342,499.581191 Z M859.424188,542.05808 C860.202218,542.532777 860.448655,543.547752 859.975137,544.325749 C859.501619,545.104492 858.486831,545.351156 857.708801,544.877204 C856.931517,544.403251 856.685079,543.387532 857.158597,542.608789 C857.632115,541.830791 858.646159,541.584127 859.424188,542.05808 Z M862.898145,574.102048 C863.676174,574.576746 863.923356,575.59172 863.449838,576.369718 C862.975575,577.148461 861.961531,577.395125 861.183502,576.921172 C860.405473,576.447219 860.159035,575.4315 860.633298,574.652757 C861.106816,573.874759 862.12086,573.628095 862.898145,574.102048 Z M847.015181,627.757065 C847.79321,628.231763 848.040393,629.246737 847.56613,630.024735 C847.092612,630.803478 846.077823,631.050142 845.299794,630.576189 C844.522509,630.102236 844.276072,629.086517 844.74959,628.307774 C845.223108,627.529776 846.237896,627.283112 847.015181,627.757065 Z M910.175517,551.249482 C910.953546,551.723435 911.200728,552.738409 910.72721,553.517152 C910.252947,554.295895 909.238904,554.541814 908.460874,554.067861 C907.682845,553.593908 907.436407,552.578934 907.91067,551.800191 C908.384188,551.021448 909.398232,550.774784 910.175517,551.249482 Z M774.362145,639.959855 C775.140174,640.434553 775.386612,641.449527 774.913093,642.227525 C774.439575,643.006268 773.424787,643.252932 772.646758,642.778979 C771.869473,642.305027 771.623035,641.289307 772.096553,640.510564 C772.570072,639.732567 773.584115,639.485903 774.362145,639.959855 Z M759.471634,652.814703 C760.249663,653.289401 760.496101,654.304375 760.022582,655.082373 C759.549064,655.861116 758.534276,656.10778 757.756247,655.633827 C756.978962,655.159874 756.732524,654.144155 757.206042,653.365412 C757.679561,652.587414 758.693604,652.34075 759.471634,652.814703 Z M687.624918,666.042155 C688.402947,666.516853 688.649385,667.531827 688.175867,668.309825 C687.702349,669.088568 686.687561,669.335232 685.909531,668.861279 C685.132247,668.387326 684.885809,667.371607 685.359327,666.592864 C685.832845,665.814867 686.846889,665.568202 687.624918,666.042155 Z M639.416889,641.26397 C640.194918,641.738668 640.441356,642.753642 639.967838,643.53164 C639.49432,644.310383 638.479531,644.557047 637.701502,644.083094 C636.924218,643.609142 636.67778,642.593422 637.151298,641.814679 C637.624816,641.036682 638.63886,640.790018 639.416889,641.26397 Z M645.559225,673.307939 C646.337254,673.782637 646.583692,674.797611 646.110174,675.575608 C645.636655,676.354351 644.621867,676.601015 643.843838,676.127063 C643.066553,675.65311 642.820115,674.637391 643.293634,673.858648 C643.767152,673.08065 644.781196,672.833986 645.559225,673.307939 Z M458.683312,567.115718 C459.461342,567.590416 459.70778,568.60539 459.234261,569.383387 C458.760743,570.16213 457.745955,570.408794 456.967926,569.934842 C456.190641,569.460889 455.944203,568.44517 456.417721,567.666427 C456.891239,566.888429 457.905283,566.641765 458.683312,567.115718 Z M169.869196,399.878992 C170.647225,400.352944 170.894407,401.367918 170.420145,402.146661 C169.946626,402.925404 168.931838,403.171323 168.153809,402.69737 C167.376524,402.223418 167.130086,401.208444 167.603604,400.429701 C168.077123,399.650958 169.091911,399.404294 169.869196,399.878992 Z M100.256057,422.607853 C101.034086,423.081806 101.281269,424.09678 100.807006,424.875523 C100.333488,425.654266 99.3186993,425.900184 98.5406701,425.426232 C97.7633854,424.952279 97.5169474,423.937305 97.9904657,423.158562 C98.4639839,422.379819 99.4787723,422.133155 100.256057,422.607853 Z M112.540728,439.002441 C113.318758,439.476394 113.56594,440.491368 113.091677,441.270111 C112.618159,442.048854 111.603371,442.294773 110.825342,441.82082 C110.048057,441.346868 109.801619,440.331894 110.275137,439.553151 C110.748655,438.774408 111.763444,438.527744 112.540728,439.002441 Z M69.6061737,468.18928 C70.3842029,468.663978 70.6313854,469.678952 70.1578672,470.45695 C69.6836044,471.235693 68.6695606,471.482357 67.8915314,471.008404 C67.1135022,470.534452 66.8670642,469.518732 67.341327,468.739989 C67.8148453,467.961992 68.8288891,467.715328 69.6061737,468.18928 Z M60.1760131,437.01497 C60.9540423,437.488923 61.2004803,438.504642 60.726962,439.28264 C60.2534438,440.061383 59.2386555,440.308047 58.4606263,439.833349 C57.6833416,439.359396 57.4369036,438.344422 57.9104219,437.565679 C58.3839401,436.786936 59.3979839,436.541018 60.1760131,437.01497 Z M97.0300277,486.074286 C97.8080569,486.548984 98.0544949,487.563958 97.5809766,488.341956 C97.1074584,489.120699 96.0926701,489.367363 95.3146409,488.89341 C94.5373562,488.419457 94.2909182,487.403738 94.7644365,486.624995 C95.2379547,485.846997 96.2519985,485.600333 97.0300277,486.074286 Z M165.277707,474.523553 C166.055736,474.998251 166.302918,476.013225 165.8294,476.791223 C165.355137,477.569966 164.341093,477.81663 163.563064,477.342677 C162.785035,476.868724 162.538597,475.853005 163.01286,475.074262 C163.486378,474.296264 164.500422,474.0496 165.277707,474.523553 Z M192.701561,550.534827 C193.47959,551.009525 193.726028,552.024499 193.252509,552.802497 C192.778991,553.58124 191.764203,553.827904 190.986174,553.353951 C190.208889,552.879998 189.962451,551.864279 190.435969,551.085536 C190.909488,550.307538 191.923531,550.060874 192.701561,550.534827 Z M115.518831,537.369972 C116.29686,537.843925 116.544042,538.858899 116.06978,539.637642 C115.596261,540.416385 114.581473,540.662304 113.803444,540.188351 C113.026159,539.714399 112.779721,538.699425 113.253239,537.920682 C113.726758,537.141939 114.741546,536.895275 115.518831,537.369972 Z M71.7161591,635.116 C72.4941883,635.590697 72.7406263,636.605671 72.267108,637.383669 C71.7935898,638.162412 70.7788015,638.409076 70.0007723,637.935124 C69.2234876,637.461171 68.9770496,636.445452 69.4505679,635.666709 C69.9240861,634.888711 70.9381299,634.642047 71.7161591,635.116 Z M150.014933,611.766379 C150.792962,612.240332 151.040145,613.256051 150.566626,614.034049 C150.092364,614.812792 149.07832,615.059456 148.300291,614.584758 C147.522261,614.110806 147.275823,613.095832 147.750086,612.317089 C148.223604,611.538346 149.237648,611.292427 150.014933,611.766379 Z M132.767254,509.052047 C133.545283,509.526 133.791721,510.540974 133.318203,511.319717 C132.844685,512.09846 131.829896,512.344378 131.051867,511.870426 C130.274582,511.396473 130.028145,510.381499 130.501663,509.602756 C130.975181,508.824013 131.989225,508.577349 132.767254,509.052047 Z M188.50637,26.2410001 C189.2844,26.7156979 189.531582,27.730672 189.057319,28.5086697 C188.583801,29.2874127 187.569013,29.5340767 186.790984,29.0601241 C186.013699,28.5861714 185.767261,27.5704522 186.240779,26.7917092 C186.714297,26.0137115 187.729086,25.7670474 188.50637,26.2410001 Z M186.50637,75.2410001 C187.2844,75.7156979 187.531582,76.730672 187.057319,77.5086697 C186.583801,78.2874127 185.569013,78.5340767 184.790984,78.0601241 C184.013699,77.5861714 183.767261,76.5704522 184.240779,75.7917092 C184.714297,75.0137115 185.729086,74.7670474 186.50637,75.2410001 Z M193.50637,101.241 C194.2844,101.715698 194.531582,102.730672 194.057319,103.50867 C193.583801,104.287413 192.569013,104.534077 191.790984,104.060124 C191.013699,103.586171 190.767261,102.570452 191.240779,101.791709 C191.714297,101.013711 192.729086,100.767047 193.50637,101.241 Z M221.50637,60.2410001 C222.2844,60.7156979 222.531582,61.730672 222.057319,62.5086697 C221.583801,63.2874127 220.569013,63.5340767 219.790984,63.0601241 C219.013699,62.5861714 218.767261,61.5704522 219.240779,60.7917092 C219.714297,60.0137115 220.729086,59.7670474 221.50637,60.2410001 Z M282.50637,68.2410001 C283.2844,68.7156979 283.531582,69.730672 283.057319,70.5086697 C282.583801,71.2874127 281.569013,71.5340767 280.790984,71.0601241 C280.013699,70.5861714 279.767261,69.5704522 280.240779,68.7917092 C280.714297,68.0137115 281.729086,67.7670474 282.50637,68.2410001 Z M330.50637,96.2410001 C331.2844,96.7156979 331.531582,97.730672 331.057319,98.5086697 C330.583801,99.2874127 329.569013,99.5340767 328.790984,99.0601241 C328.013699,98.5861714 327.767261,97.5704522 328.240779,96.7917092 C328.714297,96.0137115 329.729086,95.7670474 330.50637,96.2410001 Z" opacity=".303" mask="url(#b)"/>
  </g>
</svg>
