<svg width="30" height="30" viewBox="0 0 30 30" fill="none" xmlns="http://www.w3.org/2000/svg">
<path fill-rule="evenodd" clip-rule="evenodd" d="M30 15C30 23.2842 23.2843 30 15 30C6.71573 30 0 23.2842 0 15C0 6.71582 6.71573 0 15 0C23.2843 0 30 6.71582 30 15ZM22.4166 11.2454C23.1418 11.1592 23.8332 10.9663 24.476 10.6814C23.9955 11.4004 23.3877 12.0317 22.6867 12.5371C22.6936 12.6904 22.6971 12.8452 22.6971 13.0007C22.6971 17.739 19.0905 23.2024 12.4957 23.2024C10.471 23.2024 8.58588 22.6091 7 21.5913C7.27996 21.6248 7.56606 21.6416 7.85484 21.6416C9.53512 21.6416 11.0809 21.0686 12.3082 20.1069C10.7389 20.0776 9.41506 19.041 8.95889 17.6169C9.17762 17.6587 9.40196 17.6809 9.63352 17.6809C9.96 17.6809 10.2774 17.6372 10.5779 17.5549C8.93804 17.2256 7.70163 15.7766 7.70163 14.0396L7.7019 13.9941C8.18507 14.2632 8.7383 14.4246 9.32575 14.4429C8.36422 13.8 7.73077 12.7024 7.73077 11.4587C7.73077 10.8018 7.90779 10.1853 8.21635 9.65601C9.98487 11.8257 12.6269 13.2532 15.6067 13.4026C15.5452 13.1399 15.5134 12.8665 15.5134 12.5854C15.5134 10.6057 17.1191 9 19.0988 9C20.1307 9 21.0625 9.4353 21.7166 10.1318C22.5329 9.97119 23.3006 9.6731 23.9934 9.26196C23.7252 10.0999 23.157 10.8018 22.4166 11.2454Z" fill="#F2F2F2"/>
</svg>
